<svg xmlns="http://www.w3.org/2000/svg" viewBox="0 0 135.4 135.5">
  <path fill="#d2d2d2" d="M67.7 52c0-.4.1-.4.2-.2v.5c-.1 0-.2 0-.2-.4z"/>
  <path fill="#b0b0b0" d="M88.7 109.9a2800.7 2800.7 0 0 1 0 0zM55.3 61.7zm33.4-.2v-9.3l.1 4.7v4.7h11.4l11.3.2h-11.3c-9 0-11.4 0-11.5-.3zm-21-10.4c0-.3.1-.3.2-.1v.5c-.1 0-.2 0-.2-.4zm24-27h.5c.1.1 0 .2-.3.2s-.4 0-.2-.2z"/>
  <path fill="#8e8e8e" d="M51.2 84V61.7 73l.1 11.2h8.3l8.2.1-8.2.1c-6.5 0-8.3 0-8.4-.3zm43.3.2zM67.7 50.3c0-.3.1-.3.2-.1v.5c-.1 0-.2 0-.2-.4zM76 32l.5-.5c.4-.3.4-.3 0 .1-.3.5-.5.6-.5.4z"/>
  <path fill="#525252" d="M6.7 128.5l-.5-.6.6.5c.6.5.7.7.5.7l-.6-.6zm121.7 0l.6-.5c.1 0 0 .3-.3.6a2 2 0 0 1-.6.5s0-.3.3-.5zM97.5 46.7zM6.7 6.8l.6-.5c.1 0 0 .3-.3.5a2 2 0 0 1-.6.6s0-.3.3-.6zm121.7 0l-.5-.6.6.5.6.6c0 .2-.2 0-.7-.5z"/>
  <path fill="#2c2c2c" d="M21.6 135.3h.5l-.3.1c-.3 0-.4 0-.2-.1zm91.8 0h.5l-.3.1c-.3 0-.4 0-.2-.1zM0 113.6c0-.3 0-.4.2-.2v.5c-.1.1-.2 0-.2-.3zm135.2 0c0-.3 0-.4.2-.2v.5c-.1.1-.2 0-.2-.3zm-45-65.3l.5-.5c.4-.3.4-.3 0 .1-.3.5-.5.6-.5.4zM0 21.8c0-.3 0-.4.2-.2v.5c-.1.1-.2 0-.2-.3zm135.2 0c0-.3 0-.4.2-.2v.5c-.1.1-.2 0-.2-.3zM21.6 0h.5l-.3.1c-.3 0-.4 0-.2-.1zm91.8 0h.5l-.3.1c-.3 0-.4 0-.2-.1z"/>
  <path d="M20.3 135.1c-9.2-1-17.5-8.5-19.7-18-.5-1.8-.5-4.9-.5-49.4s0-47.6.5-49.5A24 24 0 0 1 17.7.7L20 0h95.5l2.2.6a24 24 0 0 1 17.1 17.5c.5 1.9.5 5 .5 49.5s0 47.6-.5 49.5c-2 8.4-8.6 15.2-17 17.5-2 .5-2.7.6-15.5.7H89v-51h22.5V61.6H88.8l.1-5.5c.1-6.1.3-6.8 2.2-8.5l1-.8H111.4V24l-11.2.1c-10.6.1-11.3.1-13 .7a28.5 28.5 0 0 0-18.8 21c-.4 1.6-.5 3-.6 8.9l-.1 7H51V84.3H67.7v51H45a840 840 0 0 1-24.7-.3z"/>
</svg>