<svg xmlns="http://www.w3.org/2000/svg" viewBox="0 0 135.2 135.2">
  <path fill="#8e8e8e" d="M52.3 123.2zM12 67.6V52.3a4011.5 4011.5 0 0 1 0 15.3zm111.4 0V52.3a4011.5 4011.5 0 0 1 0 15.3zm-71-55.8z"/>
  <path d="M34.7 135a37.8 37.8 0 0 1-33-26.5C-.2 102.7 0 104.7 0 67.6c0-31.2 0-34 .5-36.2a37.8 37.8 0 0 1 31-31C33.6 0 36.3 0 67.5 0c31.2 0 34 0 36.2.5a37.8 37.8 0 0 1 31 31c.4 2.2.4 4.9.4 36.1 0 31.2 0 34-.5 36.2a37.8 37.8 0 0 1-30.8 31c-2 .3-5.2.4-34.4.4l-34.8-.1zm69.5-12.3a26 26 0 0 0 17.4-15.2c1.8-4.6 1.7-1.9 1.7-39.9s.1-35.3-1.7-40a26 26 0 0 0-18-15.2c-1.9-.5-4.4-.5-36-.5s-34.1 0-36 .5a26 26 0 0 0-18 15.3c-1.8 4.6-1.7 1.9-1.7 39.9 0 31.9 0 34.4.5 36a26 26 0 0 0 17 18.6c3.6 1.2 3.5 1.2 39 1.1h33.7zm-41-20.6l-2.6-.5a35 35 0 0 1-24.2-18.8c-2.5-5-3.3-8.9-3.3-15.2a31.5 31.5 0 0 1 10-24.5 34.8 34.8 0 0 1 17.6-9.5c3.2-.7 10.6-.7 13.8 0a35.2 35.2 0 0 1 24.3 18.8c2.5 5 3.3 8.9 3.3 15.2a31.5 31.5 0 0 1-10 24.5c-4.8 4.8-10.7 8-17.4 9.5-1.9.4-10.2.8-11.5.5zm10-12.2A23.1 23.1 0 0 0 90 73c.7-2.6.7-8.2 0-10.8a23.3 23.3 0 0 0-17-17c-2.6-.7-8.2-.7-10.8 0a23.3 23.3 0 0 0-17 17c-.3 1.3-.5 2.8-.5 5.4 0 4 .4 5.8 1.8 9.1A23.1 23.1 0 0 0 73.3 90zm29-50.2a8.6 8.6 0 1 1 3.5-16.8 8.6 8.6 0 0 1-3.4 16.8z"/>
</svg>