<svg xmlns="http://www.w3.org/2000/svg" viewBox="0 0 96 84.1">
  <path fill="#fdfdfd" d="M69.7 68.8l.5-.4c.4-.4.4-.4 0 0-.3.5-.5.6-.5.4z"/>
  <path fill="#eee" d="M87.5 27c0-.4 0-.4.1-.2v.5l-.1-.3zm0-3.5c0-.3 0-.4.1-.1v.5l-.1-.4zm-40-2.7c0-.4 0-.6.2-.4v.7c-.1.2-.2 0-.2-.3z"/>
  <path fill="#dedede" d="M87.5 25.9c0-.3 0-.4.1-.2v.5l-.1-.3zm0-1.3c0-.4 0-.6.1-.3.1.2 0 .6 0 .8l-.1-.5z"/>
  <path fill="#cacaca" d="M10.2 30.4c-.4-.5-.4-.5 0-.1l.5.4c0 .2-.2 0-.5-.3zm-1.6-25l-.7-.6.8.6c.6.6.8.8.6.8l-.7-.7z"/>
  <path fill="#bebebe" d="M13.8 51.3h.5l-.3.1c-.3 0-.4 0-.2-.1z"/>
  <path fill="#aeaeae" d="M6.2 74.8h.6c.2.1 0 .2-.3.2-.4 0-.5-.1-.3-.2z"/>
  <path fill="#a2a2a2" d="M94.5 1V.6c.2 0 .4 0 .4.2s-.1.3-.2.3c0 0-.2-.1-.2-.3z"/>
  <path fill="#7d7d7d" d="M46.5 25.6h1l-.5.1h-.5z"/>
  <path fill="#2d2d2d" d="M3.9 15c0-.4 0-.6.1-.4v.7l-.1-.4zm83-1.8h.6l-.3.1c-.4 0-.5 0-.4-.1zM53 5.8l.5-.4c.4-.3.4-.3.1 0-.3.5-.6.7-.6.4z"/>
  <path fill="#1d1d1d" d="M3.6 29.9c0-.4 0-.6.2-.3v.8c-.1.1-.2 0-.2-.5zm84.6-16.7h.6l-.3.1c-.4 0-.5 0-.3-.1z"/>
  <path fill="#0d0d0d" d="M10.3 30.2l-.5-.6.6.5c.5.5.7.7.5.7l-.6-.6zM8.5 5.6l-.8-.8.8.7c.8.8 1 1 .8 1l-.8-.9z"/>
  <path fill="#090909" d="M9.6 6.8c-.3-.4-.3-.4.1 0 .3.1.5.3.5.4 0 .2-.2 0-.6-.4z"/>
  <path d="M24.8 84a42.3 42.3 0 0 1-24-8.8l-.8-.7 1.2.2a59.5 59.5 0 0 0 13-.6c5.2-1.3 9.4-3.5 12.6-6.4l1.7-1.6-1.8-.3c-8.2-1.4-14-6.5-15.8-14.1-.2-.7-.2-.7.6-.5 1 .4 6.8.2 7.2-.2.2-.2-.3-.4-1.3-.7C9.7 48 4.4 40.9 4 31.9l-.1-2.8.9.7a11 11 0 0 0 5.2 2l2 .2c.2 0-.7-1.1-1.9-2.3C6 25.2 4.1 20.9 4.1 15c0-3.1.5-6.2 1.6-9.2l.8-2.1 2.6 2.5a80 80 0 0 0 20.5 15 40.6 40.6 0 0 0 16 4.5l2.7.2-.2-1c-.3-1.5-.2-7.3.3-9.4 1.8-8 6.8-13.2 15-15.1a11 11 0 0 1 4.8-.3c5 .6 8.9 2.2 12 5l1.7 1.7 1.4-.3c1.9-.4 5.3-2 8.6-4L94.6 1l-.1.9C93.8 5 91.9 8 88.9 11c-1.1 1-2.1 1.8-2.3 1.8-.1 0-.2.1-.2.3 0 .2 1.6.2 4.8 0L96 13l-.3.6c-.5 1-3.4 3.7-6 5.8l-2.3 1.8v4.9a57.5 57.5 0 0 1-26.6 49.5 40.7 40.7 0 0 1-11 5 71.3 71.3 0 0 1-25 3.4z"/>
</svg>