<svg xmlns="http://www.w3.org/2000/svg" viewBox="0 0 161.02 112.66">
  <path d="M73.3 112.62l-8.08-.13c-18.33-.28-27.8-.67-38.77-1.6a43.96 43.96 0 0 1-10.74-2.1c-4.32-1.56-7.54-4.14-9.68-7.74-2.68-4.52-4-10.3-4.96-21.83A367.28 367.28 0 0 1 0 56.36c0-4.98.49-15.63 1.02-22.2.85-10.63 1.96-16.31 4.05-20.74a17.35 17.35 0 0 1 8.23-8.48 29.2 29.2 0 0 1 8.6-2.59c2.24-.37 3.66-.51 8.51-.87C40.14.78 47.98.47 63.1.22c17.9-.3 17.08-.3 34.86 0 15.53.26 23.44.57 33.37 1.31 4.88.37 7.04.62 9.42 1.1 10.11 2.08 15 6.94 17.4 17.34 1.15 4.93 1.98 13.09 2.52 24.54a193.3 193.3 0 0 1 0 23.64c-.47 10.1-1.25 18.28-2.18 23.02-1.97 9.96-5.9 15.1-13.63 17.79a43.3 43.3 0 0 1-8.27 1.73c-4.05.48-14.7 1.13-23.06 1.4-10.35.36-34.38.67-40.22.53zm12.23-44.27a5162.84 5162.84 0 0 0 20.77-12.03c.06-.06-41.14-23.95-41.65-24.15-.14-.05-.15 1.95-.15 24.13 0 23 0 24.18.17 24.1l20.86-12.05z"/>
</svg>