<svg xmlns="http://www.w3.org/2000/svg" viewBox="0 0 702 178.8"><path fill="#1d1d1d" d="M32.6 176.5c-.3-1.2-.5-2.8-.4-3.4 0-1.1.3-1.4 2-2.2 1.7-.9 2.6-1 7.1-1.3 5.7-.4 8.2-.9 8.9-1.8.7-.9 2.3-5 2.7-7a41 41 0 0 0 0-10.4c-.6-1 0-2.6 1.3-4.3l1.2-1.6-1.4-2.2c-.8-1.2-1.4-2.4-1.3-2.7.2-.3.4-2 .6-3.8.1-1.8.4-3.6.7-4 .3-.5.3-1.3 0-2.9-.4-1.7-.4-3 0-5.9.3-2.7.3-4.2 0-5.4-.2-1-.4-3.4-.3-5.5 0-2-.2-6.2-.6-9-.4-4-.4-5.7-.2-6.8.2-.7.5-6.4.6-12.5.2-9.3 0-11.5-.4-13.4-.4-2-.4-3-.1-5.6.3-2.5.3-3.5 0-4.4-.3-.9-.4-1.6 0-2.9.1-.9.3-4 .2-6.8 0-2.8.2-6 .4-7.2.3-1.7.2-2.3-.3-4l-.7-2 .8-2.1a57 57 0 0 1 1.5-3.5l.6-1.3-1.1-1.6c-2-2.7-2-3-.7-6.2l1-2.9-1.5-2.2c-1.7-2.5-2-2.8-5-3.4-1.8-.4-2.2-.3-4.2.5-3.4 1.4-4 1.4-7.4.7-2.8-.5-3.6-.5-7-.2-3 .4-4.2.4-6 0-2.4-.4-6.7 0-8.8 1-1.8 1-2.8 3.9-5.1 15.4-1.5 7.4-2.1 10-2.6 10.5-.4.3-1.9.8-3.3 1.2-3.7 1-4 .7-3.7-3 0-1.5.5-3.6.8-4.7.6-1.9.6-2 0-2.7-.5-.6-.6-.9-.2-3.3.4-2.2.4-3-.1-4.9-.5-1.7-.6-4-.6-10.1V6.8l2-3C3.2 2 4 1 4.5 1l3.8.6c2.8.6 3.7.6 8.3.2 2.8-.2 5.8-.3 6.6-.2.8.1 2.3 0 3.4-.2 1.5-.3 2.1-.3 2.7 0 .6.3 1.6.3 4.4 0 3.4-.4 3.6-.4 6.1.5l2.7.9 3.2-1L49 .9 51.9 2l3 1 2.6-.7c1.8-.5 3.8-.8 6-.9l4.2-.2c.5 0 2 .4 3.1 1l2.2 1 1.7-.7c1.6-.6 2.2-.6 5-.3 1.6.2 4 .3 5 .2 2.4-.2 3 .3 2.4 1.8-.2.5-.3 1-.2 1.2.5.5 5-1 6.3-2.2.7-.6 1.8-1.3 2.5-1.6 1.1-.3 1.5-.3 3.4.5l2.2 1 1.3-.8c1.1-.7 2-.8 6.6-1l6.5-.1c2.2-.1 7.8.8 9.2 1.5 1.4.7 1.8.6 2.4-.6.6-1.1 1.1-1 2.5.3l1.1 1.2-1.2 3c-.7 1.8-1.5 3.5-1.8 4-.3.4-1 2.1-1.6 3.9-1.1 3.5-1.1 3.6 1 5.9.9 1 .9 1 .4 3.2-.6 2.7-.6 3 .1 6 .5 2 .5 3 .2 4.9-.4 2-.3 2.5 0 3.3.5.8.5 1-.2 2.4-1 1.9-2.4 3.3-3.7 3.6-.6.1-1.1 0-2-.7-2-1.7-2.5-3.4-3.4-11.4-.4-4-1-8-1.2-8.9-.5-1.7-.4-1.9 1.4-2.9 1.6-.9 2-1.6 1.1-2-1.5-.5-6.3-2.6-6.6-3-.5-.4-2-.3-3.7.3-1.4.5-1.8.5-3.1 0l-2.1-.5c-.4 0-1.2-.4-2-.8l-1.4-.7-1.8.9a10 10 0 0 1-5 1c-2.8 0-3.3 0-5.1-.9-2-1-2-1-4.5-.5a8 8 0 0 1-3.9 0c-.7-.3-1.6-.4-2-.4-1.2 0-2.3 1.5-3 4.2l-.6 2.6 1 2.3c.8 2.2.9 2.6.8 7.4 0 4.7-.3 7.3-1 13.2-.3 1.4-.2 2.3.1 3.1 1 2.4.6 13.4-.6 17.7l-.7 2.7.6 2.4c1.5 5 1.6 6 1.2 9.2a61.2 61.2 0 0 0-.5 11.2c0 1 0 3 .2 4.7.1 2.5 0 3.2-.5 3.8-.5.8-.6 1 0 3 .7 3.3 1 10.4.8 17.4l-.1 11.9c0 7 0 8.7-.6 11-.6 2.5-.6 3-.1 4 .5 1.4.6 7.7.2 12-.2 2 0 2.9.7 5.3 1.3 4.6 2 5.4 6.3 6.5 3 .8 5.2 1 8.5.5 2.3-.3 2.3-.3 2.7.6.2.6.7 1 1.5 1.1 2.2.5 2.4 1.1 1.3 5.9l-.4 1.6h-8.8a44.9 44.9 0 0 1-10.5-.3c-.5.3-7.7.4-22.4.4H33.2zm27.7-26.1c.5-.6.1-1-.9-1s-1.8 1-1.1 1.2c.8.3 1.6.2 2-.2zm3.2-4.3c0-.6-1-1.4-1.4-1.2-.2 0-.2.4.2 1 .6.8 1.2 1 1.2.2zm9.8-.5c.1-.3 0-.4-.5-.4l-.8.6c0 .3.1.5.5.4.4 0 .7-.3.8-.6zm-6.5-44.8l.6-.8c0-.5-1.2-.3-2 .2-.3.3-.5.7-.4 1 .3.7.7.6 1.8-.4zm-3.5-82.3c.9-1 .3-1.5-1-1-1 .4-1 .4-.7 1.2.3.8 1 .7 1.7-.2zm45.2-6.9c.7-.3 1.2-.7 1.2-.9a6 6 0 0 0-1.6-1.3 14 14 0 0 0-7-2.1c-2 0-1 .6 1.7.9 2 .2 2 .2 1.8 1.1-.5 2.2-.4 2.4 1 2.6l1.5.2 1.4-.5zm11.4-3.5c0-.4-1.2-1.1-2.8-1.8-2.2-1-3-1.2-4.4-1-1.9.1-4 1-4 1.6 0 .1 1.3.4 3 .5l4.4.7c2.3.8 4 .7 3.8 0zM161 178.4c-.2-.1-2.1-.3-4.4-.3-6.4-.1-9.5-.3-12.8-.6-2.4-.2-3.4-.2-5 .3-2 .6-2.2.6-3 0-1-.7-1.8-2.4-1.5-2.8.1 0 1.6-.2 3.3-.2 2.9-.1 4.2-.4 3.7-.8-.4-.5-4-1-5.4-.7-1.3.2-1.6.1-2-.6-.2-.4-.3-1-.2-1.3.4-1 4.5-2.5 8-3 3.3-.4 3.4-.4 5.7.5 2.4 1 8 2 9 1.6.3-.2.5-.6.4-1.2 0-.8 0-1 1-1.2l4.3-1c3.8-1 5-.9 10.8.5l5 1.1c2.8.6 1.2 1.5-2.7 1.5-.8 0-2.4-.2-3.5-.5-2.6-.7-6-.7-6.2 0-.3.8-.3.8 2.8 1.6a26.5 26.5 0 0 0 13.7-.3c1.3 0 3.1.9 3.1 1.6 0 .8-2.1 6.1-2.4 6.1l-1.7-.5c-1.2-.6-1.4-.6-2.6 0-1.2.5-1.4.5-2.2 0-1-.6-1.3-.6-5.8 0-5.2.6-9 .7-9.4.2zm80.4 0l.3-.4.2.4c0 .2-.2.3-.4.3s-.2-.1-.1-.3zm3.6-1a20 20 0 0 0-4.2-1.5c-1-.2-2-.5-2.2-.7-.5-.5 2-3.7 2.8-3.7l2.7.5c1.8.5 2 .4 2.7-.1.6-.6.8-.6 2.1 0 2 .6 4.2.6 5.4 0 .4-.4 1.4-.9 2.2-1.2 1.6-.8 1.6-1.2.2-1.8-.6-.2-1-.5-1-.7 0-.1.7-1 1.5-1.8l1.6-1.6 2 .8a24.7 24.7 0 0 0 5.8 1.3c.7.1 1.2-.1 2.3-1 .7-.7 1.5-1.3 1.6-1.3.5 0 .4-1-.1-1.2-.3 0-1.2 0-2 .2l-3.1.3c-1.4 0-1.5 0-1.7-1.3-.2-1-.5-1.3-1.8-1.9-1.7-.7-2-1.3-1-2.2 1-.8 1.1-.8 3.6.3 1 .5 3 1 4.3 1.3 1.2.1 3 .5 4 .9 1.6.6 1.6.6 3-.2 1.9-1 3.4-.9 5.5.5l1.4.9-.3 2.4-.2 2.4 1.5.2 5.8 1.3c4.5 1.1 6 1.1 8.9.3 1.6-.5 2.9-3.4 2.9-6.7 0-1.7.2-2.8.8-4 .7-1.7.7-2.3.7-8.5 0-5.5 0-7.1-.6-9.2l-.7-2.6 1-1.3 1.7-2.3c.5-.7.8-1.6.9-3.8.1-2.5 0-3.1-.7-4.9-.9-1.9-1.5-6.3-1.4-9v-2.3c-.2-4.6 0-8.5.4-9.8.4-1.3.4-1.7-.2-3.5-.6-2-.6-2.2.1-4.6l.7-2.5-.8-2.3a90 90 0 0 0-1.2-3.3c-.4-1-.4-1.3-.1-2 .8-1.5 1.8-5.4 1.9-7.2 0-1-.2-2.8-.6-4.2-.5-2.1-.5-2.6 0-4 .9-2.9 1-3.5.4-5.8-.3-1.2-.6-3.4-.7-4.9-.3-2.5-.2-2.9.6-4.7 1-2 1-2.1.7-7.7-.1-4.1-.4-6.3-.9-7.7-.6-2-.6-2.2 0-4.2.5-2 .5-2.2 0-4.1-.6-2-.6-2 .2-2.8.7-.8.7-.9 0-1.3-.4-.4-.6-1-.7-4 0-2.8-.3-4.3-1.2-7-1-3.3-1-3.4-2.8-4.2-2-1-3.3-1.1-5.3-.3-1.5.6-1.5.5-8.2-1.4-1.8-.6-2.7-1.8-3-4-.1-1.6 0-1.8 1.2-3 1.4-1.5 1.9-1.6 4.8-1 1.8.4 1.8.4 2.8-.7 1-1.2 1.4-1.3 4.8-.6 1.4.3 5 .6 8 .8 6.8.2 6.2.2 10.5 0 2.7-.3 3.8-.2 5 .3 2.2.7 7.4.7 9 0a33.7 33.7 0 0 1 15-1c4.6.3 7 .4 7.5.2a19 19 0 0 1 8.4-.4c2.6.3 3.7.3 5.5 0 2-.4 2.3-.4 3.9.4a24 24 0 0 0 9.6 1.6c2-.4 8.1 2.4 14.5 6.7l5.6 3.8 2 3.2c2 3.2 3.5 6.7 4.3 10.1.3 1.5.3 1.8-.2 2.3-.5.5-.4.6.6 1.6 1 .9 1.4 1.9 2.1 4.2l1 3-1.5 4.7c-1.1 4-1.4 5.2-1.4 7.8 0 3.5-.8 6.3-2.4 8.6-.6.8-1.3 2.5-1.7 3.7-.6 2-.9 2.6-3.6 5.3a40.8 40.8 0 0 0-3.7 4 5 5 0 0 1-1.6 1.4 11 11 0 0 0-2.5 2.5l-3.6 4.3c-2 1.9-2.6 2.3-4.7 3a19 19 0 0 0-4.2 1.9c-2 1.3-8.7 3.5-10 3.1-1-.3-4.4 1.4-5.5 2.9-1.2 1.5-1 2.1.7 2.4 1.6.3 1.8.2 1.3-1-.5-1-.3-1.6.6-1.6.8 0 3.1 3 3.8 4.9.3.9 1.2 2.4 2 3.4 1.4 1.8 1.5 2.3.7 3-.8.7-1.4.2-2.4-2.4a9.9 9.9 0 0 0-1.2-2.5c-1 0-3.4 1.7-4.7 3.2l-1.5 1.8 1.8 1.6c1 1 2 2.1 2.3 2.7a5 5 0 0 0 2 1.4c.7.3 1.9 1 2.6 1.7.8.6 1.5 1 1.6.8 0 0 0-1.2-.3-2.4l-.4-2.2 1.2-1c.6-.5 1.4-1 1.7-1 .8 0 2.7 2.3 3.2 3.9.4.9.7 1.1 1.4 1.1s1 .2 1.1.9c.1.5 0 1.2-.3 1.5-.5.8-.2 1.4 4 8 2.8 4.2 3.2 5.3 2.5 6.1-.6.5-.8.5-2.6 0a7 7 0 0 0-3-.4c-1.3.3-2.3 0-2.6-1-.3-.8-1-.8-1.6 0-.3.2-1.1.9-2 1.4-1.5.8-1.5.8-2.6.2-1-.6-1.1-.6-1.8.2-2 2.7-4.3 4.3-6 4.3-.7 0-1.4-1-1.4-2.2 0-1.2-1.3-3.6-3-5.5-1.7-2-5-6.7-6-8.8-.5-.8-2-2.6-3.7-4-2.6-2.6-2.8-2.8-2.6-3.8.3-1.5-.4-2.7-3.1-5a30.2 30.2 0 0 1-4.6-5.6c-6-9-6-9.2-4.8-11.2.5-1 1-1.2 2.5-1.5 4.3-.8 6-.8 9.8 0l3.7 1 1.6-1 1.5-.8 2.4 1c1.5.5 2.7.8 3.3.6.6-.1.9 0 1 .4.3.5.6.6 2.1.3l4.4-.3c3.3 0 3.3-.7-.3-2.4a10 10 0 0 1-2.7-1.6c0-.7 1.6-2.4 3.5-3.6a15 15 0 0 0 3.3-2.9c.7-.9 2-2 2.8-2.6a4.7 4.7 0 0 0 2.3-2.6c.3-.9 1.2-2.4 2-3.4a68 68 0 0 0 3-4c.8-1.3 1.7-2.4 2-2.6.2-.1.3-.5.2-.8-.1-.4.9-1.6 3.3-4 2-1.8 4.6-4.6 6-6 1.3-1.5 3.2-3.2 4.2-4 1.1-.7 1.8-1.4 1.8-1.9 0-1.1-3.4-1.1-6 0-3.5 1.6-4.1 2.1-4.1 4.1 0 2.3-.3 3-2.2 5.2-2.8 3-3.8 2.7-3.8-1.2 0-1.4.3-2.8.7-3.9l.8-1.7-.8-2.2c-1-3-1-4 .5-5.6 1-1 1.4-1.2 2.2-1l3.7.4c3.2.3 3.6 0 2.6-2-.8-1.5-1.4-1.6-3.5-.6-2.2 1.2-3.5 1.2-5.5.2-1.5-.8-1.6-.9-1.5-2.4.1-1.3 0-1.7-1.3-3-.8-.9-1.9-2.6-2.5-4-1.8-4-3.8-5.6-11.1-9l-4.2-2-7.8-.3c-9.7-.5-16-.3-17.4.5-.6.3-2.5.8-4.2 1-2.3.5-3.3.9-4 1.5-2.2 2-2.7 5-1.2 6.4 1.2 1.1 1.1 1.7-.2 2.1-1.1.4-1.2.7-.7 2.6.2.8 0 3-.4 6.1-.8 6.4-.8 9.6 0 11.2a48 48 0 0 1-.1 15.4c-.5 2.6-.5 3.1 0 6 .7 3.8.7 5.4 0 6.3-.6.8-.7 1.7-.1 2.6.3.5.3 1 0 2.3-.6 2-.6 7 0 7.9.3.5.2 1.2-.4 3.2-1 3.3-1 3.4.2 5.4 1.1 2 1.1 2.7 0 7.8-1 4-1 4.4-.7 7 .3 1.6.3 3.9.2 5-.1 1.9 0 2.6.6 4.2.7 1.8.8 2.6.8 7.2 0 3-.1 5.5-.3 5.8a60.7 60.7 0 0 0-.4 10.5c0 1.4-.1 2.3-.6 3.1l-.7 1.2 1 2.9 1 2.8-1 .8c-.8.7-1.2 1.6-.5 1.6.2 0 .8.4 1.4.9 1 .8 1.1 1.1 1.1 2.5 0 11 .2 11.4 4.4 12 2 .2 3.2.6 4.3 1.2 1.4 1 1.6 1 6.1.9 3.5-.1 4.8 0 5.1.3.6.6.4 2.3-.7 5.4l-.7 2.3-7.3.1-7.3.1-1.6-1.6-1.6-1.6-1.5 1c-2.5 1.8-5.8 2.4-11.7 2l-7.3-.2-13.6.2-11.3.3-1.3-1c-1.6-1-1.5-1-5-.1-3.2.8-11.5 1.4-11.5.8 0-.4 1.3-.8 5-1.6 2.7-.6 2.8-.7 2.3-2.5-.7-2.3-1.6-2.5-4.5-.7-1.3.8-3.1 1.7-4 2-1.5.4-1.8.6-2 1.5-.2 1.3-1.2 1.5-8.6 1.4h-5.6l-2.4-1.2zm68.2-3.5l-.4-.4c-.2 0-.3.1-.3.4 0 .4.1.6.3.5.2 0 .4-.3.4-.5zm-34.3-1.7c.7-.5 1.5-2.5 1.3-3.1-.3-.6-4.2-3-5.5-3.3-.8-.2-1 0-1.1.6-.2.5-.4.7-1 .5-.3 0-.9 0-1.3.3-.6.6-.6.6 0 1.1.6.5 1.2.5 2.8.4 1.5-.2 2.1 0 2.5.3.5.5.5.7-.1 1.6-1 1.4-1 1.8 0 2.1 1 .3 1.6.1 2.4-.5zm40.4-.7a5 5 0 0 1 1.8-.6c.5 0 .9-.1.9-.3 0-.5-1.2-1-3.3-1.2-1.9-.3-2.4.2-1.7 1.7.4 1 .9 1.1 2.3.4zm-8.6-3.7c0-.4-2.2-1.8-2.8-1.8-.7 0-.4.7.8 1.4 1.2.8 2 1 2 .4zm6.2-13.1c2.5-.5 2.9-1 1.2-1.8-1-.3-1.3-.3-2.6.3l-2.6 1c-1.2.2-1.5.7-.7 1 .5.2 1 .1 4.7-.5zm3.2-4c1.8-.5.8-1-4.2-2.5l-3.3-.9c-.4 0 0 1.1 1 2.5l1 1.5 2.4-.3c1.3 0 2.7-.3 3.1-.4zm-7-14.8c-.4-.5-1.2.2-.8.8.2.3.4.3.7 0 .4-.3.4-.5.2-.8zm62-19.7c-.3-.7-2-1.8-2.3-1.5-.6.4-.4.7.8 1.3 1.4.7 1.7.7 1.5.2zm-22.4-26.8c2.9-2.8 3.7-3.8 2.8-3.8a18 18 0 0 0-6.5 4.7c-.6 1-.5 2 .2 2 .2 0 1.8-1.3 3.5-3zM341 91.2c.3-.4.3-.7 0-.9-.5-.3-1.7.5-1.7 1.1 0 .8 1.3.6 1.7-.2zm-27.1-75c.8-.8 1-.9 3.2-.7 2.3.3 4.2 0 4.2-.5 0-.4-.8-.6-4-1-3-.5-3.2-.5-4 .2-.7.5-1 1.1-1.1 1.8-.2 1.4.5 1.5 1.7.2zm15-3.3c1.2-.7 1.4-1 1-1.5-.1-.1-1 0-2 .3-3 .9-2.9.8-2.4 1.4.6.7 2 .6 3.5-.2zm-8.9-.7c.2-.2 0-.5-.6-.7-1.6-.6-2-.5-2 .5 0 .9 0 1 1.1.7.7-.1 1.3-.4 1.5-.5zm73.6 166c-.3-.2-1.4-1.3-2.3-2.5-1.5-1.7-2-2.7-2.8-5.1-.5-1.7-1.2-3.3-1.5-3.6-.3-.2-1-1.5-1.6-2.8-.7-1.4-1.9-3.1-3.2-4.5a25.6 25.6 0 0 1-3.4-4.5c-.6-1.3-1.7-3-2.4-3.9a56.9 56.9 0 0 1-4.3-6.7l.9-1.4c1.3-1.7 1.1-2-1-1.7a6 6 0 0 1-2.5 0c-.9-.5-4.5-6.2-4.5-7 0-1 .6-1.3 5.3-3.2 1.7-.7 4.4-1.5 6-1.8 1.7-.3 4.2-1 5.6-1.6a19 19 0 0 1 3-1c.3 0 2.3 1.6 4.5 3.6 3.3 3 4.3 4.1 5.5 6.2.8 1.5 2.4 3.6 3.5 4.8 1.7 1.7 2.4 2.7 3.3 5 .6 1.5 1.6 3.3 2 4 .9 1 1 1.2.5 2.4-.5 1.3-.4 1.5 1.1 2 .8.2 2 1.3 3.5 3.3 1.3 1.7 3.6 4.2 5 5.6a71 71 0 0 1 3.8 4l1.2 1.4 3.2-.5c4-.8 4.8-.7 7.3.3 2.4.9 8 1.8 8.9 1.5.4-.2.5-.6.5-1.2-.1-.8 0-1 1-1.2l4.3-1c3.7-1 5-.9 10.8.5l5 1.1c2.8.6 1.2 1.5-2.7 1.5-.9 0-2.5-.2-3.5-.5-2.7-.7-6-.7-6.3 0-.2.8-.2.8 3 1.6a26.5 26.5 0 0 0 13.6-.3c1.3 0 3 .9 3 1.6 0 .8-2 6.1-2.4 6.1l-1.6-.5c-1.2-.6-1.4-.6-2.6 0-1.3.5-1.4.5-2.3 0-.8-.6-1.2-.6-6 0-3.6.4-6 .5-7.8.3l-6-.4-6.5-.2c-1.7 0-4.2-.2-5.7-.4-2.3-.3-2.8-.2-4.1.5-1.6.8-3.6 1-4.2.3a150.8 150.8 0 0 1-24.1 0zm8.2-.8v-.7c-.2-.6-1.4-.6-1.7 0-.4.6 1.2 1.3 1.7.7zm-13-21.4c0-.3-.3-.6-.6-.6s-.5.3-.5.6c0 .2.2.5.5.5s.6-.3.6-.5zm-2.3-20.7c-.2-.2-.6-.3-1-.3-.3 0-.6.1-.6.3 0 .2.4.4.9.4s.8-.2.7-.4zm-5.7-2.3c.3-1 0-1.6-.7-1.6s-1.2 1.5-.8 2c.6.8 1.3.6 1.5-.4zm142.5 45.4l.4-.4.2.4c0 .2-.2.3-.4.3s-.3-.1-.2-.3zm3.6-1a20 20 0 0 0-4.2-1.5c-1-.2-2-.5-2.1-.7-.5-.5 2-3.7 2.8-3.7l2.7.5c1.8.5 2 .4 2.6-.1.7-.6.8-.6 2.2 0 2 .6 4.2.6 5.3 0 .5-.4 1.5-.9 2.2-1.2 1.6-.8 1.7-1.2.3-1.8-.6-.2-1-.5-1-.7 0-.1.6-1 1.5-1.8l1.6-1.6 2 .8a24.7 24.7 0 0 0 5.8 1.3c.6.1 1.2-.1 2.2-1 .8-.7 1.5-1.3 1.7-1.3.5 0 .4-1-.2-1.2-.2 0-1.1 0-2 .2l-3 .3c-1.5 0-1.5 0-1.8-1.3-.2-1-.4-1.3-1.7-1.9-1.7-.7-2-1.3-1-2.2 1-.8 1-.8 3.5.3 1.2.5 3.1 1 4.4 1.3 1.2.1 3 .5 4 .9 1.6.6 1.6.6 3-.2 1.8-1 3.4-.9 5.4.5l1.4.9-.2 2.4-.2 2.4 1.8.3a6 6 0 0 0 2.5 0c.3 0 2.3-2.8 4.4-6 2-3.1 4.6-6.5 5.5-7.6a10 10 0 0 0 2.4-4.3c.7-2.5 1.2-3.1 7.5-11.3.8-1 3.5-5 5.9-8.8a139.4 139.4 0 0 1 7.3-11c.8-1.5 1.8-2.9 2.2-3.3l1.5-2c1.3-2.5 3-4.1 6.8-6 3.5-1.7 5.1-2.9 5.1-3.6 0-.2-.4-.7-1-1.1-.7-.6-.8-.8-.4-.8.3 0 1.2.4 2 1 .7.6 1.5 1 1.7 1 .7-.3 1.2-1.8.9-2.4-.5-1-.4-1.5.5-2.6.8-1 1.2-1.1 3-1.3 1.8-.1 2.3-.3 2.4-.7.1-.8-3-1.8-6-2-1.3-.1-2.2-.4-2.3-.7 0-.2 1-1.9 2.3-3.6a23 23 0 0 0 2.8-4.4c.2-.9.5-1.1 1.3-1.2.9-.1 1-.2.7-1.2-.2-1 0-1.3 1.2-2.5l3.2-4c1-1.5 2.5-3.4 3.3-4.3a10 10 0 0 0 1.7-3c.2-.9 1-2.3 1.5-3.3l1.6-2.7c.2-.5 1-1.2 1.8-1.6 2.3-1.2 4-1.3 8-.4 4.2.9 4.7 1.1 4.7 2.1 0 .8.9 1 1.3.3.1-.2 0-.8-.2-1.4-.6-1.4-.4-1.5 3.3-2 3-.5 4.8-1.2 4.8-1.9s-1.1-.7-2.5-.1c-1.7.8-2 .5-2.1-1.7-.2-1.7-.2-1.8-1.4-2.2-.6-.2-1.3-.7-1.4-1.2-.3-.8-1.2-1-1.6-.4-.1.2-1.2.4-2.3.4-1.6 0-2.1.1-2.1.5 0 .3.2.6.4.7.5.3.4 1.5-.2 1.7-.6.2-2.6-1-3.2-2-.3-.5 0-.8 1.3-2 1.8-1.5 2.7-3.6 3.4-7.2.3-1.8.6-2.3 1.7-3.2 1.5-1.2 3.5-3 4.6-4.5.8-1 .9-1 2-.5 1.6.7 2 .3 1.1-1.6-.6-1.3-.6-1.4.3-3.2.5-1 1-2.4 1.1-3a7 7 0 0 1 2.3-4.1c.6-.6 1.9-2.2 2.7-3.6l3-3.9c2-2 1.6-2.4-1.4-2.1-1.9.2-2.4.1-3.2-.5-.8-.6-1.6-.8-3.8-.8-1.5 0-3.1-.3-3.6-.6-.5-.2-1.4-.3-2.5-.2-1.6.2-1.7.2-1.9-.6-.3-1.1-1.4-1.6-2.1-.9-.7.7-5.4 1.9-10 2.6-5 .7-5.1.7-5-.3 0-.6-.4-1.6-1.6-3-1.7-2.3-2-2.4-3-1.8-1 .5-.9 1 .7 1.7.8.4 1.3 1 1.2 1.1-.4.6-2.7.8-3.6.3-.7-.4-1.3-.4-4 .2-5.8 1.1-12 1.7-15.4 1.5-2.9-.2-3.5-.2-4.7.5-1.3.6-3.6 1.2-9.5 2.1-1.3.2-2.6.6-2.9.7-.7.4-1 3-.5 4.3.2.7.1 1.5-.4 3.5-.5 1.4-1.1 4.8-1.5 7.5-1 7.4-1.6 8.9-3.3 10.2-1.3.9-1.7 1-3.3.9-2.7-.3-3.8-1.3-3.7-3.9l.1-7.7c.1-3.5.4-6.5.7-7.7.4-1.4.4-2.2 0-4-.3-1.6-.3-2.6 0-3.3.4-1.1.4-3.2 0-3.5a96 96 0 0 0-1.3-5.4c-.6-2.5-.6-2.6 0-3.5.5-.6 1-1.8 1.4-2.7.4-1 1-1.8 1.2-2l3 .5c3 .7 7.6.6 10.9-.2 1.7-.5 2.1-.5 4.5.1 2.5.7 2.5.7 5.2 0 1.5-.4 3-.7 3.5-.6l4.6 1.1 4 1 2.6-.6c2.5-.6 2.8-.6 4.7 0 1 .2 2.8.5 3.7.4 2-.1 2.5.4 1.4 1.4-1.4 1.1-1 1.4 2.6 1.4 3.5 0 6.1-.5 9.5-2a25 25 0 0 1 7.7-1.4c5.8-.5 6.1-.5 10.6.3l6.5 1.1c1.6.4 1.9.4 2.8-.3.5-.4 2.2-.9 3.6-1.1 2.4-.4 2.6-.4 4.8.5l2.3.9L682 2l2.4-.6 2.2.7c2.2.6 3.3.4 9.7-1l2.6-.7 1.4 1.4 1.4 1.4v3.7c0 3.4-.1 3.9-1 5.3a82 82 0 0 0-2 3.9c-.9 1.6-2 3-4.1 5a24 24 0 0 0-4.7 5.8 16 16 0 0 1-2.7 3.7c-1.5 1.1-4 4.6-6.1 9l-3.7 7c-.1.3-1.5 1.8-3 3.4-2.2 2.5-2.8 3.3-3 4.6-.3 1.4-.8 2-2.8 4.2a40.8 40.8 0 0 0-3.4 4c-2.1 3-2.5 3.4-3.8 3.6-1.6.3-2 .7-1.3 1.5 1 1.1 1 1.4-.4 3-.8 1-1.5 2-1.6 2.6l-.5 2c-.2.7-.8 1.5-2 2.4-1.3 1-1.9 1.8-2.5 3.3-1.2 3-2.8 4-3 2-.1-1-.2-1-2-.9-1.8.2-3.4-.4-4.9-1.7-.8-.8-1.5-.6-2.9 1l-.9.8.9.7.9.7-1 .8c-1.6 1.4-1 3.4 1.4 4.2 1 .3 1.3.3 1.8-.2s.5-.6 0-1.2c-1.1-1.2-.7-1.9 1.7-2.6 3.1-1 3.5-.9 3.8.6.2.8.1 1.5-.2 1.8-.2.2-1.2 2.5-2.2 5-1.9 4.3-2 4.5-3.5 5.3a5 5 0 0 0-2.5 2.5 288.8 288.8 0 0 0-12.4 19.4l-3.6 5.3c-1 1.4-2.6 3.6-3.7 4.8-1.8 2-3 4.6-3 6.4 0 .3-1 1.1-2 2-1 .8-2.3 2.2-2.9 3.3-.6 1-2.2 3-3.5 4.4-2.2 2.2-2.5 2.4-4 2.4-.8 0-1.4.1-1.4.3l1 1.4 1.2 1.1-.6 1.6c-1 2.6-3 5.1-4.5 5.5-1.5.4-1.5.4-1 1.4.4.5.3.9-.1 1.9-.8 1.6-.8 3.3 0 3.7 1.2.7 5.7.9 8.2.4a9 9 0 0 1 4.4 0c1.5.3 2 .3 2.6 0 .5-.4 1.2-.4 3.4.1 3.4.8 8 .8 10.2 0 1.6-.5 1.8-.5 3.7 0 1.1.4 2.9.7 4 .6 2.2 0 4.7.5 5 1.1.2.2 0 .7-.3 1-.6.6-.6.8 0 1.8l.7 1 1.5-.7c1-.7 1.5-.7 3.6-.6 1.7.2 2.6.1 3-.2.6-.4.6-.5 0-1.2-.5-.4-1.5-.8-2.4-.9-2.2-.3-4.5-1.3-4.5-1.9 0-.4.2-.4.6-.3.4.2 1.7.4 3 .7 2 .3 2.6.2 3.7-.3 1-.4 1.4-.5 2-.2a5 5 0 0 0 2.4.2c1 0 2 0 2.4.2.5.3 1 .3 2.5-.3 2.3-1 3.2-1 4 0 .5.4 1.3 1 2 1.2 1 .5 1.2.4 2.7-.6l1.7-1 .8.7c1 .9 1 1.8.3 2.4-.3.3-.6.7-.6 1 0 .8 1.3.5 3-.8 2.4-2.1 6-3.7 8.3-3.7l2.7-.2c1-.3 4.3-4.6 6-8l1.6-3.1-.6-1.6c-.7-2.1-.6-3.7.2-5.5.4-.8.7-2.2.7-3 0-.8.2-1.6.5-1.9.5-.3.5-.6 0-1.8-.5-1.2-.5-1.5 0-3.1.7-2.1 1.2-2.5 4.3-2.7 2-.2 2.3-.2 3.5.7l1.2 1-.2 3.4c0 1.8-.3 4.3-.5 5.4a8.2 8.2 0 0 0 0 3.6c.5 1.9.3 3.6-1.3 8.4l-.8 2.8.7 2.1c.4 1.2.6 2.3.5 2.5a37 37 0 0 0-.1 5.1c0 6.6 0 6.4-.6 7.6-1.2 2.4-1.3 2.4-8 2.4-4.9 0-6 0-6.8-.6-.8-.5-1.2-.5-4-.1-2.2.3-3.3.3-4 0-.8-.3-1.4-.2-2.6.2-1.2.4-3 .5-7.6.5-3.3 0-6-.2-6.2-.4a80 80 0 0 1-16.7-.3c-1.7-.4-2.4-.4-3.4 0-1 .3-1.3.3-2.2-.2a4.9 4.9 0 0 0-4.1 0c-1 .3-6.5.6-14.4.6-3 0-3.9 0-5.6-.8l-2.1-.9-4.1.8c-3.7.8-4.4.9-6.8.5-2-.3-3.3-.3-5 0-1.3.2-8.4.4-16.9.5l-14.7.2-1.3-.9c-1.5-1-1.5-1-5-.1-3.1.8-11.4 1.4-11.4.8 0-.4 1.2-.8 5-1.6 2.6-.6 2.8-.7 2.3-2.5-.7-2.3-1.7-2.5-4.6-.7-1.2.8-3 1.7-4 2-1.4.4-1.7.6-1.9 1.5-.2 1.3-1.3 1.5-8.6 1.4h-5.7l-2.4-1.2zm34-5.2c.7-.5 1.5-2.5 1.2-3.1-.2-.6-4.2-3-5.5-3.3-.7-.2-1 0-1 .6-.2.5-.5.7-1 .5-.3 0-1 0-1.3.3-.7.6-.7.6 0 1.1.6.5 1.2.5 2.7.4 1.6-.2 2.2 0 2.6.3.5.5.5.7-.1 1.6-1 1.4-1 1.8 0 2.1.9.3 1.6.1 2.4-.5zm15.9-3.1c0-.6-2-2.6-2.4-2.3-.4.5 1 2.7 1.7 2.7.4 0 .7-.2.7-.4zm44.4-.3c0-.6 0-.7-.5-.3-.3.2-.5.6-.5.7 0 .2.2.3.5.3s.5-.3.5-.7zM601 143.9c-.1-.3-.3-.4-.4-.3v.5c.4.6.6.5.4-.2zm15-34.7c0-.4-1.4-1.4-1.9-1.4-.6 0-1.7 1-1.4 1.4.3.5 3.3.5 3.3 0zm8-5.4c.3-.5 1.3-1.1 2.3-1.5 1.6-.5 3.1-1.7 2.7-2.1 0-.1-1.6-.3-3.4-.4l-3.3-.2.2.8c.7 2.5.7 2.5 0 2.7-1.3.3-1 1.4.5 1.5.2 0 .7-.4 1-.8zm63.7-87c0-.2-.2-.4-.4-.4s-.3.2-.3.4.1.3.3.3c.2 0 .4-.1.4-.3zM643.5 11c0-.7-1.1-2.4-2.2-3.3-1-.9-2-1.2-2-.6a11 11 0 0 0 2.7 3.5c1 .9 1.5 1 1.5.4zm-493 155c-1.5-.2-2.3-.7-2.3-1.4 0-.2.3-.5.8-.8 1.4-1 3.3-5.1 4.4-9.7 1-4 3.2-9.3 4.4-10.3a9 9 0 0 1 2.8-.8c1.2-.2 2.4-.5 2.5-.7.2-.1-.7-.7-2-1.3-2-1-2.4-1.2-2.3-2 0-1.4 1.2-4 4-8.2 1.3-2 2.4-4.2 2.6-5l.3-1.2 2.3-.1c1.3-.1 2.4-.3 2.4-.4 0-.4-1.3-.8-2.5-.8-1.4 0-1.9-.8-1.2-2 .3-.6.5-1.5.5-2 0-1.1.4-1.5 1.9-1.8.8-.1 1.3-.3 1.2-.4l-2.5-.5c-1.3-.1-2.5-.4-2.6-.5 0 0 0-.7.3-1.4.2-.7.3-1.4.2-1.5-.1-.1-1.3.8-2.5 2l-2.3 2.2-3-.6a188 188 0 0 0-18.6-1.6c-1 0-1.4-.2-2-1l-1-1.1-3 .4c-7.3.8-9.3 1-14.5 1-6 0-6.7-.1-9.9-2.2-1.7-1-2-1.8-1.1-2.2.3 0 2.1 0 4.1.2l3.7.5 2.7-1.6 2.8-1.5 1.3.6c1.3.6 1.4.6 3-.2 1.5-.7 1.8-.8 3.6-.4 3.6.7 6.2.9 7.7.5 3-.8 10.9-1.5 13-1l7.2.2h5l2.6 1.8 2.7 1.8 1.2-1.9c1.8-2.8 1.9-2.8 5.3-2.6 2.9.3 4.8 0 4.8-.8 0-.2-.8-.6-1.8-1-1-.3-1.9-.8-2-1 0-.3.2-1 .6-1.7 1-1.6 1-2-.2-1.9-.8.1-1 0-1.1-.8 0-.5.2-1.3.6-2 .5-.8 1-1.1 2.8-1.5 2.3-.5 2.7-1 1.4-2-.5-.4-1-.8-1-1-.6-.8 1-5.3 2.2-7 .7-.9 1.7-2.8 2.2-4.4.5-1.5 1.4-3.6 2-4.7.7-1 1.4-2.5 1.5-3.3.2-.8 1-2.8 1.8-4.6l1.8-4.4c.1-.7 1-2.6 1.8-4.3 1-2.1 1.7-4.1 2.2-6.7.4-2 1.8-6.3 3-9.5l2.1-5.8 3.3.1c1.7.1 3.3 0 3.4-.1 0-.2-.8-.8-2.1-1.4-2.8-1.2-2.9-1.7-.5-4.8 2.2-3 3-3.6 5.8-4.5 1.9-.7 2.3-.9 2-1.3-.7-.8-2.8-1.3-3.9-1-1.4.6-1.9.2-1.7-1.6 0-1.5.1-1.6 1.5-1.9 1.9-.4 2-.6 1.2-1.8-.7-.9-.7-1-.3-3.3.2-1.3.8-3 1.2-4 .5-.8 1.2-2.7 1.6-4 .6-2 .9-2.7 1.4-2.7.5 0 .7.5 1 1.6.3 1.2.6 1.6 1.1 1.7h1.2c.2 0 .4-.4.4-1 0-.8.2-1.4.5-1.6l5.7-2.7c.2 0 1.2 1.2 2.4 2.7 1.9 2.5 2.1 3 1.8 3.6-.3.6-.2 1.2.7 3.3 2 5 3.7 10.5 3.7 12.8 0 2.2 0 2.2 1.4 3 1.7 1 2 1.5.9 2.4-.8.7-.8.7-.2 1.2l1 .7c.3 0 .2.4-.2.9-.5.5-.6 1-.4 1.2l1.5 2c1.2 1.6 1 2.1-.2 1.4-1-.5-1.5-.2-1.5.9 0 1 .2 1.1 3.2 2.3 2 .9 2.3 1.1 2.7 2.3.8 2 .5 2.4-2 2.1-1.9-.2-2-.2-3.5 1-.9.6-1.5 1.3-1.4 1.5 0 .2.8.5 1.6.7 1.5.4 4.3 2 5 2.7.4.5.2.8-.8 2-.7.8-1.9 1.6-2.6 1.8l-2.7 1.1c-1.2.7-1.3.8-.8 1.2l3.5.9c3.6.5 8 1.9 9.5 2.9s6 10.3 6 12.4c0 2-.3 2.3-2.6 3.2-1 .4-1.8 1-1.8 1.2 0 .3 1.2 1 2.8 1.5 3.4 1.3 3.6 1.4 3.9 3 0 .8.6 2.3 1.2 3.5.9 1.7 1 2.3.9 3.5-.4 2.2-.6 2.5-2 2-1.2-.6-1.4-1.3-.3-1.7 1.3-.4.7-1-1.4-1.9l-2.1-.8-1.1 1a16 16 0 0 1-5.6 2.8c-1 .2-1.2.1-1.8-1-.6-1-1-1.3-1.8-1.3-1.6 0-2.8.6-2.8 1.4 0 1.6-4 1.1-4.5-.6a20 20 0 0 1 0-3.8c.2-3 .2-3-.9-4.3-1.3-1.7-5.9-11.2-5.9-12.2l.5-2.7c.3-1 .4-2 .4-2.3l-1.8-1.5c-2.7-2-1.8-2.7 2.2-1.5 2 .5 2.8.6 3.3.3.4-.2.7-.5.7-.7a8 8 0 0 0-1.6-2.8l-3.2.8a13 13 0 0 1-3.4.5c-.3 0-.6-1-.7-2.2a11 11 0 0 0-2-4.9 15.7 15.7 0 0 1-2.5-6.2c-.7-3.7-.7-4 1.3-6 1.1-1.2 1.2-1.4 1-2.3-.4-.8-.6-1-1.4-1-1.8.2-4.6 1.2-5.8 2.2-1 1-1.2 1.2-1.4 3.4-.2 2.2-.5 2.8-2.1 5.1-1 1.4-1.8 2.9-1.8 3.1l-1 3.6c-.6 1.7-1.2 3.8-1.3 4.8-.4 3.5-1 5.4-3.8 12.3-4.4 11-5.6 13-8 13.7-1.7.4-2 .7-1.3 1.3.3.3.6.7.6 1 0 .6.5.6 1 0 .4-.5.6-.5 1-.2 1 .8.4 2.5-1.9 5.6l-2 3.4c-.3 1-.9 1.9-1.1 1.9l-1.8-.9c-1.4-.8-4-1.2-4-.6 0 .7 2.4 2.6 4.1 3 1 .4 2 .8 2 1.1.1.3-.3 1.5-.9 2.7-.6 1.1-1 2.3-.9 2.4.4.6 3.6 1.5 7.1 2 3.4.3 3.5.4 3.4 1.2l-.2 2.3v1.4l-2.3.1c-1.9.1-2.5 0-4-.8-.8-.5-2-.9-2.3-.9-1.7 0-6 2.6-6 3.6 0 .5 1.8.3 4-.4l2.1-.8 5.3.9c4.6.8 5.4.8 6.2.4 1.3-.6 2.8-.6 2.8 0 0 .7-2 2.3-3 2.6-.5 0-2.2 0-3.8-.4-3.8-.8-3.9-.7-7 .5-2.3.8-3.4 1-5.6 1h-2.8v1.7c.1 1.5 0 2-1.3 4-1.4 2.2-2 2.7-4.2 3.6l-1 .4 1.5.1c.8.1 1.6.4 1.7.6 0 .3-.3 1.4-1 2.4a26.2 26.2 0 0 0-2.8 8.4c-.2 1.3-1.2 4.7-2.1 7.6-1 2.9-2 6.4-2.4 7.8-.4 1.3-1.5 3.9-2.5 5.6-2.2 4.2-2.6 4.5-9.1 4.5l-6.6-.1zm29.4-48c0-1 0-1-1.4-1-1.7 0-2 .4-.8 1.4 1.4 1 2.2 1 2.2-.4zm-1.1-9.4c.2-.6-3-1.5-4.2-1-.6.1-1 .4-.8.6.5.9 4.7 1.2 5 .4zm65.3-23c1.4-1.7 1.4-2.1 0-2.1-.9 0-1.1.2-2 1.7-1.4 3-.2 3.2 2 .4zM233.7 77c-.2-.4-.3-1.4-.2-2.3 0-1.3 0-1.5-.9-1.5-.6 0-1 .4-1.5 1.2-1 1.5-.8 2 .7 2.8 1.7.8 2.2.8 1.9-.2zm10-.3c0-.5-.4-.9-1.8-1.5-1.7-.8-2.1-.8-3.1-.5-2.6.8-2 1.7 1 1.7 1.2 0 2 .2 2.2.5.6.7 1.5.6 1.7-.2zm.6-7.6c.3-.8 0-1.2-1-1.2s-1.2.3-.4 1.2c.8.7 1 .8 1.4 0zm-3.7-2.5c0-.3-.3-1-.6-1.4-.7-1.1-3.6-3-4.2-2.8-.2.1-.6.8-.7 1.5-.3 1.6.2 2.2 2.5 2.8 2.4.7 3 .6 3-.1zm-8-3.2c.3-.4-.4-.9-.8-.6-.4.3-.2.9.3.9.2 0 .4-.1.5-.3zm-30.2-5.6c.3-.8-1-1-1.8-.1l-.8.8 1.3-.2c.6 0 1.2-.3 1.3-.5zm25.4-4c2-.4 3.9-1.9 2.8-2.3-.3-.1-1.4 0-2.4.2s-2.5.4-3.4.4c-1.8 0-3.3.7-3.3 1.5 0 .3.2.6.5.7.5.2 3.2 0 5.8-.5zM200 52c0-.4-.1-.6-.6-.6-.8 0-1.3.5-1 1 .4.6 1.4.3 1.6-.4zm27.1-2.8c0-.3-.4-.5-.8-.5-.3 0-.7.2-.8.5 0 .2.2.4.8.4.6 0 .9-.2.8-.4zm4.4-3.1c.6 0 .2-1.1-1.1-2.8-1-1.1-2.3-2.2-3.7-3-2.4-1.4-4.4-2.2-4.6-2-.3.4 1 3.7 1.5 4.3.9 1 6.5 3.8 7 3.6l.9-.1zm-2-8.7a3 3 0 0 0-1.6-.5c-.9 0-.9 0-.2.5.4.3 1 .5 1.6.5.9 0 .9 0 .2-.5zm-7-5.5c0-1.3-.2-1.5-.8-1.6-.8-.1-3.2 1.8-2.8 2.3.2.5 2.2 1 3 1 .4 0 .5-.5.5-1.7zm-7.6-2.3c1-.8.8-1.2-.3-1.2s-2.7 1-2.4 1.5c.3.5 2 .3 2.7-.3zm8.6-5.5c1.2-.8 1.8-1.6 1.4-2-.2-.2-3.7 1.5-3.7 1.9 0 1.1.8 1.2 2.3.1zm-5.5-.7c.8-1.5.2-1.8-2.8-1.3-1.9.4-2.5.6-2.4 1 .2.8 1.7 1.5 3.3 1.4 1-.1 1.5-.3 1.9-1zm-6.9-4c0-1-1-.9-1.1.1-.1.7 0 .8.5.8.4-.1.6-.5.6-.9zm5.7-2.3c1-.5 1.1-1 0-2-.8-.7-3.6-1.8-4-1.4-.2.3 1.5 3 2.3 3.4.8.5.6.5 1.7 0zM432.4 166c-1.5-.2-2.3-.7-2.4-1.4 0-.2.4-.5.9-.8 1.3-1 3.3-5.1 4.4-9.7 1-4 3.2-9.3 4.4-10.3a9 9 0 0 1 2.7-.8c1.3-.2 2.4-.5 2.6-.7.2-.1-.7-.7-2-1.3-2.1-1-2.4-1.2-2.4-2 0-1.4 1.3-4 4-8.2 1.3-2 2.5-4.2 2.7-5l.2-1.2 2.4-.1c1.3-.1 2.4-.3 2.4-.4 0-.4-1.3-.8-2.6-.8-1.4 0-1.8-.8-1.2-2 .3-.6.6-1.5.6-2 0-1.1.4-1.5 1.9-1.8.7-.1 1.3-.3 1.2-.4l-2.6-.5c-1.3-.1-2.4-.4-2.5-.5l.2-1.4c.3-.7.4-1.4.2-1.5 0-.1-1.2.8-2.4 2l-2.3 2.2-3-.6a188 188 0 0 0-18.6-1.6c-1 0-1.4-.2-2.1-1l-.9-1.1-3 .4c-7.3.8-9.3 1-14.5 1-6 0-6.8-.1-10-2.2-1.6-1-2-1.8-1-2.2.2 0 2.1 0 4.1.2l3.7.5 2.7-1.6 2.8-1.5 1.3.6c1.2.6 1.3.6 3-.2 1.4-.7 1.7-.8 3.6-.4 3.6.7 6.2.9 7.7.5 3-.8 10.8-1.5 13-1l7.1.2h5l2.7 1.8 2.7 1.8 1.1-1.9c1.8-2.8 2-2.8 5.4-2.6 2.8.3 4.8 0 4.8-.8 0-.2-.8-.6-1.8-1-1-.3-2-.8-2-1-.1-.3.2-1 .6-1.7 1-1.6 1-2-.3-1.9-.8.1-1 0-1-.8 0-.5.2-1.3.5-2 .6-.8 1-1.1 2.9-1.5 2.3-.5 2.6-1 1.3-2l-1-1c-.5-.8 1-5.3 2.3-7 .7-.9 1.6-2.8 2.1-4.4.6-1.5 1.5-3.6 2.2-4.7.6-1 1.3-2.5 1.4-3.3.1-.8 1-2.8 1.8-4.6.8-1.7 1.6-3.7 1.7-4.4l1.8-4.3c1-2.1 1.8-4.1 2.3-6.7.4-2 1.7-6.3 3-9.5l2.1-5.8 3.2.1c1.8.1 3.3 0 3.4-.1.2-.2-.8-.8-2-1.4-2.9-1.2-3-1.7-.6-4.8 2.3-3 3.1-3.6 6-4.5 1.8-.7 2.1-.9 1.8-1.3-.7-.8-2.7-1.3-3.8-1-1.5.6-1.9.2-1.8-1.6.2-1.5.2-1.6 1.6-1.9 1.9-.4 2-.6 1.2-1.8-.7-.9-.8-1-.3-3.3.2-1.3.8-3 1.2-4l1.5-4c.6-2 1-2.7 1.5-2.7.4 0 .7.5 1 1.6.3 1.2.6 1.6 1.1 1.7h1.1c.3 0 .5-.4.5-1 0-.8.2-1.4.5-1.6l5.7-2.7 2.4 2.7c1.9 2.5 2.1 3 1.8 3.6-.3.6-.2 1.2.6 3.3 2.1 5 3.7 10.5 3.8 12.8 0 2.2 0 2.2 1.4 3 1.7 1 1.9 1.5.8 2.4-.8.7-.8.7-.1 1.2l1 .7c.3 0 .2.4-.3.9-.4.5-.5 1-.3 1.2l1.5 2c1.2 1.6 1 2.1-.3 1.4-1-.5-1.4-.2-1.4.9 0 1 .2 1.1 3.2 2.3 2 .9 2.3 1.1 2.7 2.3.7 2 .4 2.4-2 2.1-2-.2-2-.2-3.6 1-.8.6-1.4 1.3-1.4 1.5.1.2.8.5 1.6.7 1.6.4 4.4 2 5.1 2.7.4.5.2.8-.8 2-.7.8-2 1.6-2.6 1.8l-2.7 1.1c-1.3.7-1.3.8-.8 1.2.3.2 2 .6 3.5.9 3.5.5 8 1.9 9.4 2.9 1.6 1 6 10.3 6 12.4 0 2-.3 2.3-2.5 3.2-1 .4-1.9 1-1.9 1.2 0 .3 1.3 1 2.8 1.5 3.5 1.3 3.6 1.4 4 3 0 .8.6 2.3 1.2 3.5.8 1.7 1 2.3.8 3.5-.3 2.2-.6 2.5-1.9 2-1.2-.6-1.4-1.3-.3-1.7 1.2-.4.7-1-1.4-1.9l-2.2-.8-1 1a16 16 0 0 1-5.6 2.8c-1 .2-1.2.1-1.9-1-.5-1-1-1.3-1.7-1.3-1.6 0-2.8.6-2.8 1.4 0 1.6-4 1.1-4.5-.6a20 20 0 0 1 0-3.8c.2-3 .1-3-.9-4.3-1.3-1.7-6-11.2-6-12.2l.6-2.7c.3-1 .4-2 .3-2.3 0-.2-.8-.9-1.7-1.5-2.7-2-1.8-2.7 2.1-1.5 2 .5 2.8.6 3.4.3.4-.2.7-.5.7-.7a8 8 0 0 0-1.7-2.8l-3 .8a13 13 0 0 1-3.6.5c-.2 0-.5-1-.7-2.2a11 11 0 0 0-2-4.9 15.7 15.7 0 0 1-2.4-6.2c-.8-3.7-.7-4 1.3-6 1-1.2 1.2-1.4.9-2.3-.3-.8-.6-1-1.3-1-1.9.2-4.6 1.2-5.8 2.2-1.1 1-1.2 1.2-1.5 3.4-.2 2.2-.4 2.8-2 5.1-1 1.4-1.9 2.9-1.9 3.1 0 .3-.4 2-1 3.6l-1.2 4.8c-.5 3.5-1 5.4-3.8 12.3-4.4 11-5.6 13-8 13.7-1.7.4-2 .7-1.3 1.3.3.3.5.7.5 1 0 .6.5.6 1 0 .4-.5.6-.5 1-.2 1 .8.4 2.5-1.8 5.6l-2 3.4c-.4 1-1 1.9-1.1 1.9-.3 0-1-.4-1.8-.9-1.4-.8-4.1-1.2-4.1-.6 0 .7 2.5 2.6 4.2 3 1 .4 2 .8 2 1.1.1.3-.3 1.5-.9 2.7-.6 1.1-1 2.3-.9 2.4.4.6 3.6 1.5 7.1 2 3.4.3 3.5.4 3.4 1.2l-.2 2.3v1.4l-2.3.1c-2 .1-2.6 0-4-.8-.9-.5-2-.9-2.3-.9-1.7 0-6.1 2.6-6.1 3.6 0 .5 2 .3 4-.4l2.2-.8 5.3.9c4.6.8 5.4.8 6.2.4 1.3-.6 2.8-.6 2.8 0 0 .7-2 2.3-3 2.6-.6 0-2.3 0-3.9-.4-3.7-.8-3.8-.7-7 .5-2.2.8-3.3 1-5.5 1h-2.8v1.7c.1 1.5-.1 2-1.3 4-1.4 2.2-2 2.7-4.2 3.6l-1 .4 1.4.1c.9.1 1.6.4 1.7.6.1.3-.3 1.4-.9 2.4a26.2 26.2 0 0 0-2.9 8.4c-.2 1.3-1.1 4.7-2 7.6l-2.5 7.8c-.4 1.3-1.5 3.9-2.4 5.6-2.2 4.2-2.7 4.5-9.2 4.5l-6.5-.1zm29.4-48c0-1-.1-1-1.4-1-1.8 0-2 .4-.9 1.4 1.4 1 2.3 1 2.3-.4zm-1.2-9.4c.2-.6-3-1.5-4.2-1-.5.1-.9.4-.8.6.6.9 4.8 1.2 5 .4zm65.4-23c1.3-1.7 1.3-2.1 0-2.1-1 0-1.2.2-2 1.7-1.4 3-.2 3.2 2 .4zM515.6 77c-.2-.4-.3-1.4-.3-2.3 0-1.3 0-1.5-.8-1.5-.6 0-1 .4-1.6 1.2-.9 1.5-.7 2 .7 2.8 1.8.8 2.3.8 2-.2zm10-.3c0-.5-.4-.9-1.9-1.5-1.6-.8-2-.8-3-.5-2.6.8-2.1 1.7 1 1.7 1.1 0 1.9.2 2.2.5.6.7 1.5.6 1.7-.2zm.5-7.6c.3-.8 0-1.2-1-1.2s-1 .3-.3 1.2c.7.7 1 .8 1.3 0zm-3.6-2.5c0-.3-.3-1-.6-1.4-.8-1.1-3.6-3-4.2-2.8-.3.1-.6.8-.7 1.5-.3 1.6.2 2.2 2.5 2.8 2.4.7 3 .6 3-.1zm-8-3.2c.3-.4-.4-.9-.9-.6-.4.3-.1.9.4.9.2 0 .4-.1.5-.3zm-30.2-5.6c.3-.8-1-1-1.8-.1l-.8.8 1.2-.2c.7 0 1.3-.3 1.4-.5zm25.3-4c2-.4 4-1.9 2.9-2.3-.3-.1-1.4 0-2.4.2s-2.5.4-3.5.4c-1.7 0-3.2.7-3.2 1.5 0 .3.2.6.5.7.5.2 3.2 0 5.7-.5zM481.8 52c.1-.4 0-.6-.6-.6-.8 0-1.2.5-.9 1 .4.6 1.4.3 1.5-.4zm27.2-2.8c-.1-.3-.5-.5-.8-.5-.4 0-.7.2-.8.5-.1.2.2.4.8.4.6 0 .9-.2.8-.4zm4.3-3.1c.7 0 .3-1.1-1-2.8-1-1.1-2.3-2.2-3.7-3-2.4-1.4-4.4-2.2-4.7-2-.2.4 1 3.7 1.6 4.3.9 1 6.5 3.8 7 3.6l.8-.1zm-2-8.7a3 3 0 0 0-1.5-.5c-.9 0-.9 0-.2.5.3.3 1 .5 1.6.5.8 0 .8 0 .2-.5zm-7-5.5c0-1.3-.1-1.5-.7-1.6-.9-.1-3.2 1.8-2.9 2.3.3.5 2.3 1 3 1 .4 0 .6-.5.6-1.7zm-7.5-2.3c.9-.8.8-1.2-.4-1.2-1 0-2.6 1-2.3 1.5.3.5 2 .3 2.7-.3zm8.6-5.5c1.1-.8 1.7-1.6 1.4-2-.3-.2-3.7 1.5-3.7 1.9 0 1.1.8 1.2 2.3.1zm-5.5-.7c.8-1.5.2-1.8-2.8-1.3-2 .4-2.5.6-2.4 1 .1.8 1.7 1.5 3.2 1.4 1.1-.1 1.5-.3 2-1zm-6.9-4c0-1-1-.9-1.2.1 0 .7 0 .8.6.8.3-.1.6-.5.6-.9zm5.6-2.3c1.1-.5 1.2-1 .1-2-.8-.7-3.6-1.8-4-1.4-.2.3 1.5 3 2.3 3.4.7.5.6.5 1.6 0zm-240 140.4c-.7-.8-.4-1.4.7-1.4 1.3 0 1.7.7.9 1.3-.8.6-1 .6-1.5 0zm282 0c-.8-.8-.5-1.4.5-1.4 1.3 0 1.8.7 1 1.3-.9.6-1 .6-1.6 0zm-286.2-4.1c0-1-.5-2.3-1.5-4.1-.7-1.5-1.4-3-1.4-3.4l-.8-3-1.3-4.6c-.3-1.6-.7-2.3-1.5-3-.8-.7-1-1-.6-1s1.7-.6 3-1.3c1.4-.6 2.7-1.2 3-1.2 1.4 0 5.5 1.8 6.2 2.7l.8 1 3.4-1c3.1-1 4.7-1 4.2-.2 0 .2-.5.3-.8.3-1 0-3 2.5-4.1 5.1a7.5 7.5 0 0 0-.8 2.5l1.6.4c1 .2 1.6.5 2 1 .8 1.2.5 1.5-1.6 1.7-1.6.2-2 .2-2.8-.4-1.3-1-1.4-1-1.4.3 0 .5-.2 1.1-.4 1.2-.8.6-.3 1.3 1 1.3 1 0 1.5.3 2.9 1.6 1.5 1.5 1.6 1.6 1 2.1a3 3 0 0 1-1.6.5c-1.8 0-5.8 1.2-6.8 2-1.4 1.1-1.7 1-1.7-.5zm3.1-11.9c0-.6-.5-1.2-1-1.2-.7 0-1 .7-.5 1.1.3.3 1.5.4 1.5.1zm278.7 11.9c0-1-.5-2.3-1.4-4.1-.8-1.5-1.4-3-1.4-3.4a46.4 46.4 0 0 1-2.1-7.7c-.3-1.5-.7-2.2-1.6-3-.7-.6-.9-1-.5-1 .3 0 1.7-.5 3-1.2 1.3-.6 2.7-1.2 3-1.2 1.3 0 5.5 1.8 6.2 2.7l.8 1 3.3-1c3.2-1 4.8-1 4.3-.2-.1.2-.5.3-.9.3-1 0-3 2.5-4 5.1a7.5 7.5 0 0 0-.8 2.5l1.6.4c1 .2 1.6.5 2 1 .7 1.2.5 1.5-1.7 1.7-1.5.2-2 .2-2.8-.4-1.2-1-1.3-1-1.3.3 0 .5-.2 1.1-.4 1.2-.8.6-.3 1.3 1 1.3 1 0 1.5.3 2.8 1.6 1.6 1.5 1.6 1.6 1 2.1a3 3 0 0 1-1.5.5c-1.9 0-5.8 1.2-6.8 2-1.4 1.1-1.8 1-1.8-.5zm3.2-11.9c0-.6-.5-1.2-1.1-1.2-.6 0-1 .7-.4 1.1.2.3 1.5.4 1.5.1zM270.9 144l.4-.8c.3-.6 1.5-.2 1.3.4-.2.5-1.7.9-1.7.4zm282 0c0-.2 0-.5.2-.8.4-.6 1.6-.2 1.4.4-.2.5-1.7.9-1.7.4zm-294-12.1c-1.6-.1-3.3-.4-3.8-.7-.5-.3-2-.4-4.4-.3l-3.6.1-2-4.7c-1.1-2.6-2-4.8-1.9-4.9.4-.4 2 .3 3.4 1.5 1.7 1.4 2.2 1.5 5.9.5a10 10 0 0 0 4.6-2.3c2-1.8 2.2-2.4 1-3.5-.3-.5-.6-1-.5-1.3.3-.8 4.6-3 5.3-2.7.6.3 2 2.7 2 3.4 0 .2-.6.7-1.4 1.2a6 6 0 0 0-2.3 2.6c-.6 1-1 2-.8 2 .1.2.6.1 1.2-.1.9-.5 1-.4 2.1.8.7.7 1.2 1.5 1.2 1.7 0 .1-1.2.8-2.7 1.3-2.7 1-2.9 1-5.5.7a10 10 0 0 0-3-.1c-.3.4.8 1.3 2.4 2 .9.4 2 1 2.3 1.4.6.6 1 .6 2.3.3 1.8-.4 2.5-.2 2.3.5-.3.8-.7.8-4 .6zm282 0c-1.7-.1-3.5-.4-3.9-.7-.6-.3-2-.4-4.4-.3l-3.6.1-2-4.7c-1.2-2.6-2-4.8-2-4.9.5-.4 2 .3 3.5 1.5 1.7 1.4 2.2 1.5 5.9.5a10 10 0 0 0 4.6-2.3c2-1.8 2.2-2.4 1-3.5-.4-.5-.6-1-.5-1.3.3-.8 4.6-3 5.3-2.7.5.3 2 2.7 2 3.4 0 .2-.6.7-1.4 1.2a6 6 0 0 0-2.4 2.6c-.5 1-.8 2-.7 2 0 .2.6.1 1.1-.1 1-.5 1-.4 2.2.8.7.7 1.2 1.5 1.2 1.7 0 .1-1.2.8-2.7 1.3-2.7 1-2.9 1-5.5.7a10 10 0 0 0-3-.1c-.4.4.7 1.3 2.4 2 .9.4 1.9 1 2.3 1.4.6.6 1 .6 2.2.3 1.8-.4 2.6-.2 2.3.5-.2.8-.6.8-4 .6zm-274-2.5c-.4-.5 0-.8.7-.6.3.2.5.4.3.6-.3.5-.7.5-1 0zm281.8 0c-.3-.5 0-.8.8-.6.3.2.4.4.3.6-.3.5-.8.5-1 0zm-297.3-7.7c-.8-.8-.7-1.3.1-1.8.8-.4 2.1 0 2.1.8 0 .5-1 1.7-1.4 1.7-.1 0-.5-.3-.8-.7zm281.9 0c-.8-.8-.8-1.3.1-1.8.8-.4 2.1 0 2.1.8 0 .5-1 1.7-1.5 1.7l-.7-.7zm-329-1.1a3 3 0 0 0-1.4-.3c-.8 0-1-.9-.4-1.3s4.3-1.2 5.3-1.2a3 3 0 0 1 1.4.3c.7.4 0 1.3-1.8 2.2-1.5.7-2.3.8-3.1.3zm281.8 0a3 3 0 0 0-1.3-.3c-.8 0-1-.9-.4-1.3s4.2-1.2 5.3-1.2a3 3 0 0 1 1.3.3c.7.4 0 1.3-1.7 2.2-1.5.7-2.4.8-3.2.3zm-294.9-.8c-.9-1.1 1-1.1 2.6 0 .7.4.6.4-.7.4-.8 0-1.6-.2-1.9-.4zm281.9 0c-1-1.1 1-1.1 2.6 0 .6.4.6.4-.7.4-.9 0-1.7-.2-1.9-.4zm-256.6-.8a2 2 0 0 1-.6-1.2c0-1-.4-1.1-1.4-.5-1 .6-1 .6-1.8 0-1-1-.9-1.5.5-2.5 1.6-1.2 2.3-1.1 5.2.4 2.3 1.2 2.4 1.3 2.4 2.4 0 1.3 0 1.3-2.5 1.7-1 .2-1.4.1-1.8-.3zm281.8 0a2 2 0 0 1-.5-1.2c0-1-.4-1.1-1.5-.5-1 .6-1 .6-1.7 0-1-1-.9-1.5.5-2.5 1.5-1.2 2.3-1.1 5.2.4 2.2 1.2 2.4 1.3 2.4 2.4 0 1.3-.1 1.3-2.5 1.7-1 .2-1.5.1-1.9-.3zM242 117.3c-1.5-.4-2.7-1-2.7-1.2a44 44 0 0 1 12.7-5.8c4.3-1.2 7.4-1.6 7.6-.8.3.6-2 1.6-6 2.8-5 1.5-6.6 2.4-5.5 3 .6.5.4.9-1 1.8-1.7 1-1.5 1-5 .2zm281.9 0c-1.5-.4-2.7-1-2.7-1.2a44 44 0 0 1 12.7-5.8c4.3-1.2 7.4-1.6 7.6-.8.2.6-2 1.6-6.1 2.8-5 1.5-6.6 2.4-5.4 3 .6.5.4.9-1 1.8-1.7 1-1.6 1-5.1.2zM94.3 112c-1.7-.7-1.4-1.5.8-2.3 2-.7 2.2-.6 2.4.4.3 1.7-1.3 2.7-3.2 2zm8.2.2v-.6c.2-.3 1.2 0 1.2.5 0 .3-.8.4-1.2 0zm282 0c-.2-.2-.2-.4-.1-.6.2-.3 1.2 0 1.2.5 0 .3-.8.4-1.2 0zm-148-1.5c-1.5-.3-2.6-.7-2.6-1 0-.2.9-.7 2-1.2 1.8-.8 2-.8 4.5-.3 4 .7 4.3 1 1.9 2-2.3 1-3 1.1-5.9.5zm281.8 0c-1.4-.3-2.5-.7-2.5-1 0-.2.9-.7 2-1.2 1.8-.8 2-.8 4.4-.3 4 .7 4.4 1 2 2-2.3 1-3 1.1-5.9.5zm-291 0c0-.2-.9-.4-1.9-.6-1.4-.2-1.8-.4-2.2-1.1-.3-.7-.3-1 .1-1.2.5-.4 5-.2 6.1.2.7.3.8 1.3.2 2.3-.3.7-1.9 1-2.2.4zm282 0c-.1-.2-1-.4-2-.6-1.5-.2-1.9-.4-2.2-1.1-.3-.7-.3-1 .1-1.2.5-.4 5-.2 6.1.2.7.3.8 1.3.2 2.3-.4.7-1.9 1-2.2.4zM237 104.5c-.5-.5-.7-1-.6-1.3.3-.4 5.8-.5 6.6 0 .4.3.4.4-.2.9-.8.5-3.2 1.2-4.3 1.2-.4 0-1-.4-1.5-.8zm281.9 0c-.5-.5-.7-1-.6-1.3.3-.4 5.8-.5 6.5 0 .5.3.5.4-.1.9-.8.5-3.2 1.2-4.4 1.2-.3 0-1-.4-1.4-.8zm-268.8-2c-5-1-5.5-1.2-7.6-2.6a14 14 0 0 0-3.4-1.8c-.6-.1-1-.3-1-.5l1.4-1.4c1.5-1.1 1.5-1.1 5.2-1 3.6 0 3.7.1 3.8 1 .1.4-.2 1-.6 1.6-.5.5-.7 1-.5 1.1.2.2 2.3 1 4.7 1.8 2.5.8 4.8 1.8 5.3 2.2l1 .7H257l-6.8-1.1zm281.9 0c-5-1-5.6-1.2-7.7-2.6a14 14 0 0 0-3.3-1.8c-.6-.1-1.1-.3-1.1-.5l1.5-1.4c1.5-1.1 1.5-1.1 5.2-1 3.6 0 3.7.1 3.8 1 0 .4-.2 1-.7 1.6-.4.5-.6 1-.4 1.1.1.2 2.3 1 4.7 1.8 2.4.8 4.8 1.8 5.3 2.2l.9.7h-1.4l-6.8-1.1zm83.7-3.9c-.1-.2 0-.3.1-.3.2 0 .4.1.4.3 0 .2 0 .4-.2.4l-.3-.4zM235.3 98c0-.2.2-.3.4-.2l.3.4-.3.2c-.2 0-.4-.2-.4-.4zm281.9 0c0-.2.1-.3.3-.2l.4.4-.4.2c-.2 0-.3-.2-.3-.4zM257 97.7c-.4-.4-.2-1.2.4-1.2.2 0 .5.2.5.5 0 .6-.5 1-.9.7zm282 0c-.5-.4-.3-1.2.2-1.2.3 0 .5.2.5.5 0 .6-.5 1-.8.7zM212 4.3c-.7-.9-.2-1.5 1.7-2.1 2.7-1 3.5 0 1.5 1.7-1.2 1-2.5 1.2-3.2.4zm281.9 0c-.7-.9-.2-1.5 1.7-2.1 2.7-1 3.4 0 1.4 1.7-1.2 1-2.5 1.2-3.1.4z"/></svg>