<svg xmlns="http://www.w3.org/2000/svg" width="63.067" height="63.032"><path d="M1.631 62.594c-1.669-.925-1.612.164-1.624-31.01C-.005.024-.07 1.211 1.747.383 2.377.095 9.775 0 31.547 0 63 0 61.826-.066 62.654 1.751c.55 1.21.55 58.329 0 59.538-.829 1.819.359 1.752-31.202 1.74-23.503-.01-29.202-.092-29.82-.435zm26.67-11.765c.544-.248 4.441-5.716 11.774-16.522 6.029-8.883 11.16-16.55 11.404-17.037.77-1.54.263-2.415-2.413-4.162-1.338-.873-2.747-1.588-3.131-1.588-.385 0-1.064.396-1.51.88-.447.484-4.73 6.676-9.52 13.76-4.788 7.084-8.8 12.88-8.914 12.88-.113 0-2.169-1.944-4.567-4.32-5.257-5.21-5.428-5.264-8.198-2.644-2.16 2.042-2.78 3.126-2.374 4.146.318.8 13.533 14.04 14.584 14.61.84.457 1.857.456 2.864-.003z" fill="#d6d6d6"/><path d="M2.561 62.806c-.26-.104-.74-.527-1.065-.94-.325-.414-.706-.68-.847-.594-.14.087-.345-.29-.454-.837-.26-1.3-.26-56.53 0-57.83.11-.547.314-.923.454-.836.14.086.568-.24.95-.726C2.294.16 2.294.16 31.516.16s29.222 0 29.917.883c.382.486.81.812.95.726.14-.087.345.29.454.836.11.548.199 13.56.199 28.915 0 15.356-.09 28.368-.199 28.915-.11.547-.314.924-.454.837-.14-.087-.568.24-.95.725-.695.883-.695.883-29.546.94-15.868.032-29.065-.027-29.326-.13zM28.67 51.232c.678-.413 4.539-5.827 12.152-17.039 13.559-19.968 13.04-18.585 8.174-21.768-2.636-1.725-3.483-1.876-4.628-.825-.43.396-4.42 6.12-8.865 12.72-4.445 6.6-8.437 12.48-8.872 13.068-.79 1.068-.79 1.068-5.177-3.28-5.492-5.441-5.447-5.431-8.874-2.004-2.104 2.104-2.343 2.469-2.343 3.583 0 1.186.294 1.535 6.8 8.08 3.74 3.763 7.304 7.113 7.92 7.443 1.437.772 2.473.778 3.713.022z" fill="#cbcbcb"/></svg>