<svg xmlns="http://www.w3.org/2000/svg" height="63.032" width="63.063"><path d="M1.627 62.594c-1.668-.925-1.611.164-1.624-31.01C-.009.024-.075 1.211 1.743.383 2.373.095 9.771 0 31.543 0 62.997 0 61.822-.066 62.65 1.751c.55 1.21.55 58.329 0 59.538-.829 1.819.36 1.752-31.202 1.74-23.503-.01-29.202-.092-29.82-.435zm27.056-12.215c1.16-.73 22.946-33.1 23.094-34.313.158-1.294-.293-1.832-3.027-3.613-2.235-1.456-3.395-1.656-4.267-.733-.311.33-4.497 6.41-9.301 13.51-4.805 7.101-8.941 12.99-9.193 13.086-.29.112-2.01-1.375-4.725-4.083-5.311-5.301-5.302-5.3-8.514-2.004-1.663 1.706-2.198 2.475-2.198 3.156 0 .745 1.18 2.09 6.8 7.754 8.038 8.1 8.994 8.711 11.33 7.24z" fill="#2f9be8"/><path d="M1.968 61.02c-.696-.74-.696-.74-.696-29.545 0-28.803 0-28.803.74-29.499.741-.696.741-.696 29.545-.696 28.804 0 28.804 0 29.5.74.695.742.695.742.695 29.545 0 28.804 0 28.804-.74 29.5-.741.695-.741.695-29.545.695-28.803 0-28.803 0-29.5-.74zm26.715-10.641c1.16-.73 22.946-33.1 23.094-34.313.158-1.294-.293-1.832-3.027-3.613-2.235-1.456-3.395-1.656-4.267-.733-.311.33-4.497 6.41-9.301 13.51-4.805 7.101-8.941 12.99-9.193 13.086-.29.112-2.01-1.375-4.725-4.083-5.311-5.301-5.302-5.3-8.514-2.004-1.663 1.706-2.198 2.475-2.198 3.156 0 .745 1.18 2.09 6.8 7.754 8.038 8.1 8.994 8.711 11.33 7.24z" fill="#fb553f"/></svg>