<svg xmlns="http://www.w3.org/2000/svg" height="60.48" width="60.48"><path d="M.53 59.895C.045 59.359 0 56.837 0 30.185 0 2.374.026 1.034.585.53 1.121.045 3.643 0 30.295 0c27.81 0 29.15.026 29.655.585.485.536.53 3.058.53 29.71 0 27.81-.026 29.15-.585 29.655-.536.485-3.058.53-29.71.53-27.81 0-29.15-.026-29.655-.585zm27.363-11.182c.715-.731 7.736-10.973 20.21-29.48 3.377-5.012 3.356-5.47-.377-8-2.344-1.587-3.088-1.81-4.018-1.2-.407.266-4.756 6.415-9.664 13.663-4.908 7.249-9.114 13.254-9.347 13.345-.247.096-2.25-1.647-4.825-4.198-3.143-3.114-4.618-4.363-5.154-4.363-.507 0-1.515.763-3.095 2.343C9.8 32.648 9.28 33.37 9.28 34.087c0 .77 1.133 2.06 6.96 7.93 3.828 3.857 7.392 7.212 7.92 7.457 1.278.594 2.69.306 3.733-.761z" fill="#fd553e"/></svg>