<svg xmlns="http://www.w3.org/2000/svg" viewBox="0 0 60 60"><path d="M49.416 10.199a3.533 3.533 0 0 0-2.346-1.382l-9.352-1.314.417-2.971c.111-.791-.093-1.58-.577-2.222s-1.185-1.056-1.977-1.167L27.661.03a3.008 3.008 0 0 0-3.388 2.553l-.418 2.971-9.351-1.314c-1.964-.278-3.75 1.118-4.017 3.026l-.619 4.401 8.353 1.174-5.855 5.855c-.09.09-.142.199-.201.305h-1.032v37.271a3.733 3.733 0 0 0 3.729 3.729h28.541a3.733 3.733 0 0 0 3.729-3.729V19h-5v-2.799l7.347 1.032.618-4.399a3.53 3.53 0 0 0-.681-2.635zM26.253 2.861a.998.998 0 0 1 1.129-.851l7.922 1.113a.995.995 0 0 1 .658.391c.162.214.23.477.193.738l-.417 2.971-9.903-1.392.418-2.97zM14.89 19l3.586-3.586L22.061 19H14.89zm11.242 0v-1h6v1h-6zm11 0v-1h3v1h-3zm-2-3v3h-1v-3h-10v2.243l-5.319-5.319L40.702 16h-5.57z"/></svg>