<svg viewBox="-95 0 512 512" xmlns="http://www.w3.org/2000/svg"><path d="M160.781 368.96c-.648 0-1.308-.07-1.949-.198a9.379 9.379 0 0 1-1.867-.57 9.775 9.775 0 0 1-1.73-.922 9.518 9.518 0 0 1-1.52-1.239 9.677 9.677 0 0 1-1.242-1.52 9.288 9.288 0 0 1-.918-1.73 9.24 9.24 0 0 1-.57-1.87 9.653 9.653 0 0 1 0-3.9c.117-.64.32-1.273.57-1.87.25-.61.547-1.192.918-1.73.359-.552.78-1.06 1.242-1.52a9.654 9.654 0 0 1 3.25-2.16 9.379 9.379 0 0 1 1.867-.57 9.796 9.796 0 0 1 3.902 0c.637.12 1.27.32 1.88.57.6.25 1.179.55 1.718.91a10.032 10.032 0 0 1 2.762 2.77c.36.538.668 1.12.918 1.73.25.597.453 1.23.582 1.87.129.637.187 1.298.187 1.95 0 .648-.058 1.309-.187 1.95s-.332 1.269-.582 1.87a10 10 0 0 1-.918 1.73 9.677 9.677 0 0 1-1.242 1.52 9.518 9.518 0 0 1-1.52 1.239c-.539.359-1.117.671-1.719.921-.61.25-1.242.45-1.879.57-.64.13-1.3.2-1.953.2zm0 0"/><path d="M256.734 312.258H203.97V287.71c52.554-17.988 90.441-67.856 90.441-126.406v-.403a10.2 10.2 0 0 0-.242-2.199c-.055-2.75-.41-44.7-.41-44.7 0-30.546-10.52-57.175-30.418-77.003-23.953-23.875-60.348-37-102.543-37h-.703c-36.56.13-69.638 10.583-93.135 29.442-25.897 20.782-39.585 50.485-39.585 85.899v35.3c0 .477.031.95.098 1.41-.211 3.079-.317 6.18-.317 9.255 0 58.547 37.887 108.418 90.442 126.406v24.547H64.832C29.086 312.258 0 341.344 0 377.09V502c0 5.523 4.477 10 10 10h301.566c5.524 0 10-4.477 10-10V377.09c0-35.746-29.086-64.832-64.832-64.832zM47.375 115.34c0-70.082 60.758-95.16 112.79-95.34h.636c36.86 0 68.246 11.059 88.426 31.168 16.277 16.223 24.53 37.363 24.53 62.836v34.398c-18.573-6.297-33.038-22.312-36.847-42.007a10 10 0 0 0-6.36-7.485C169.196 76.31 84.466 70.574 80.888 70.34a9.99 9.99 0 0 0-8.621 3.945 9.989 9.989 0 0 0-1.457 9.367c.101.285 9.722 28.832-1.66 44.926-4.34 6.14-11.641 9.957-21.774 11.402zm-.219 45.965c0-.383 0-.766.004-1.149 17.3-1.781 30.164-8.496 38.32-20.031 10.829-15.316 10.055-35.3 7.77-48.656 25.453 2.472 81.52 9.289 125.352 24.414 3.71 13.539 11.082 25.664 21.53 35.332 9.712 8.984 21.329 15.148 34 18.097-4.124 58.899-53.39 105.555-113.35 105.555-62.653 0-113.626-50.945-113.626-113.562zm90.442 131.55a134.207 134.207 0 0 0 23.183 2.012c7.906 0 15.653-.687 23.188-2.012v19.403h-46.371zM20 377.09c0-24.719 20.113-44.832 44.832-44.832h37.555V492H20zM170.781 492v-95.754c0-5.523-4.476-10-10-10-5.52 0-10 4.477-10 10V492h-28.394V332.258h76.793V492zm130.785 0H219.18V332.258h37.554c24.72 0 44.832 20.113 44.832 44.832zm0 0"/><path d="M238.758 438.852c-5.52 0-10-4.477-10-10v-6.645c0-5.523 4.48-10 10-10 5.523 0 10 4.477 10 10v6.645c0 5.523-4.477 10-10 10zm0 41.734c-5.52 0-10-4.477-10-10v-6.64c0-5.524 4.48-10 10-10 5.523 0 10 4.476 10 10v6.64c0 5.523-4.477 10-10 10zm0 0"/></svg>