<svg xmlns="http://www.w3.org/2000/svg" viewBox="0 0 33 33"><path d="M27.049 30.134H5.951c-.99 0-1.81-.743-1.908-1.728L2.659 14.537a.498.498 0 0 1 .498-.55h26.688a.5.5 0 0 1 .498.55L28.96 28.406a1.916 1.916 0 0 1-1.911 1.728zM3.708 14.988l1.329 13.319a.914.914 0 0 0 .913.827h21.099a.915.915 0 0 0 .914-.827l1.329-13.319H3.708zm3.896-5.882a.497.497 0 0 1-.383-.179.498.498 0 0 1 .061-.704l6.246-5.24a.5.5 0 1 1 .642.766l-6.246 5.24a.498.498 0 0 1-.32.117zm17.793 0a.502.502 0 0 1-.321-.117l-6.247-5.24a.502.502 0 0 1-.062-.705.502.502 0 0 1 .705-.062l6.247 5.24a.502.502 0 0 1-.322.884z"/><path d="M31.275 14.988H1.725A1.727 1.727 0 0 1 0 13.263v-3.198C0 9.114.774 8.34 1.725 8.34h29.55c.951 0 1.725.774 1.725 1.725v3.198c0 .951-.773 1.725-1.725 1.725zM1.725 9.339c-.4 0-.725.325-.725.725v3.198c0 .4.325.725.725.725h29.55a.726.726 0 0 0 .725-.725v-3.198c0-.4-.325-.725-.725-.725H1.725zm7.53 16.709a.5.5 0 0 1-.5-.5v-7.25a.5.5 0 0 1 1 0v7.25c0 .277-.223.5-.5.5zm4.83 0a.5.5 0 0 1-.5-.5v-7.25a.5.5 0 0 1 1 0v7.25c0 .277-.223.5-.5.5zm4.83 0a.5.5 0 0 1-.5-.5v-7.25a.5.5 0 0 1 1 0v7.25a.5.5 0 0 1-.5.5zm4.83 0a.5.5 0 0 1-.5-.5v-7.25a.5.5 0 0 1 1 0v7.25a.5.5 0 0 1-.5.5z"/></svg>