<svg xmlns="http://www.w3.org/2000/svg" viewBox="0 0 135.465 115.31"><path d="M61.981 111.97C39.419 96.736 19.318 78.753 9.525 65.04 3.31 56.339.003 48.147 0 41.452-.006 29.354 5.373 17.437 14.287 9.8 24.232 1.279 36.86-1.847 49.609 1.059c5.545 1.264 11.106 4.058 16.036 8.057.962.78 1.917 1.419 2.121 1.419.205 0 .966-.519 1.69-1.153 4.803-4.2 11.935-7.563 18.723-8.83 3.028-.566 10.502-.62 13.42-.097 19.54 3.499 33.875 20.78 33.866 40.827-.007 15.151-15.152 34.886-44.45 57.919-9.575 7.528-21.977 16.109-23.283 16.109-.595 0-2.102-.875-5.751-3.34zm8.817-4.55c10.446-7.185 22.363-16.417 29.743-23.042 6.844-6.144 15.383-15.029 19.35-20.133 4.086-5.255 7.531-11.322 8.956-15.772 2.38-7.429 1.287-16.174-3.048-24.382C118.14 9.588 102.024 2.377 86.363 6.446c-5.306 1.379-10.015 3.966-14.327 7.87-3.123 2.829-3.94 3.261-5.163 2.737-.473-.203-2.017-1.425-3.43-2.716C53.159 4.946 38.756 2.691 25.928 8.464c-7.926 3.567-15.327 11.73-18.383 20.278C5.8 33.624 4.95 39.858 5.504 43.697 6.893 53.305 13.928 64 27.816 77.619c5.206 5.105 8.033 7.665 13.458 12.184 8.214 6.842 25.354 19.41 26.481 19.419.231.002 1.6-.81 3.043-1.802zm46.136-65.069c-.748-.67-.83-.916-1.037-3.109-.81-8.607-5.46-15.196-12.97-18.373-1.088-.46-2.187-1.026-2.442-1.256-.692-.627-.86-1.99-.362-2.953.85-1.641 2.31-1.775 5.358-.488 9.232 3.897 15.697 13.527 15.697 23.378 0 1.838-.056 2.038-.773 2.755-1.038 1.038-2.343 1.055-3.47.046zm-26.468-23.33c-1.053-1.053-1.056-2.34-.007-3.515.635-.71.959-.858 1.88-.858 2.644 0 3.605 3.57 1.284 4.77-1.186.614-2.285.476-3.157-.396z"/></svg>