<svg xmlns="http://www.w3.org/2000/svg" width="63.054" height="63.032"><path d="M1.624 62.593C-.044 61.67.013 62.755 0 31.615-.007 11.405.095 2.36.336 1.828c.191-.42.754-1.002 1.25-1.295C2.41.046 5.006 0 31.509 0c26.502 0 29.1.046 29.923.533.497.293 1.059.876 1.25 1.295.519 1.139.485 58.32-.035 59.46-.829 1.82.36 1.753-31.202 1.74-23.503-.009-29.202-.092-29.82-.435zM61.11 61.12c.63-.63.64-1.067.64-29.6s-.01-28.97-.64-29.6c-.63-.63-1.067-.64-29.6-.64s-28.97.01-29.6.64c-.63.63-.64 1.067-.64 29.6s.01 28.97.64 29.6c.63.63 1.067.64 29.6.64s28.97-.01 29.6-.64z" fill="#fe5a44"/></svg>