<svg xmlns="http://www.w3.org/2000/svg" height="63.032" width="63.067"><path d="M1.631 62.594c-1.669-.925-1.612.164-1.624-31.01C-.005.024-.07 1.211 1.747.383 2.377.095 9.775 0 31.547 0 63 0 61.826-.066 62.654 1.751c.55 1.21.55 58.329 0 59.538-.829 1.819.359 1.752-31.202 1.74-23.503-.01-29.202-.092-29.82-.435z" fill="#d5d5d5"/><path d="M2.561 62.806c-.26-.104-.74-.527-1.065-.94-.325-.414-.706-.68-.847-.594-.14.087-.345-.29-.454-.837-.26-1.3-.26-56.53 0-57.83.11-.547.314-.923.454-.836.14.086.568-.24.95-.726C2.294.16 2.294.16 31.516.16s29.222 0 29.917.883c.382.486.81.812.95.726.14-.087.345.29.454.836.11.548.199 13.56.199 28.915 0 15.356-.09 28.368-.199 28.915-.11.547-.314.924-.454.837-.14-.087-.568.24-.95.725-.695.883-.695.883-29.546.94-15.868.032-29.065-.027-29.326-.13z" fill="#cbcbcb"/></svg>