<svg xmlns="http://www.w3.org/2000/svg" width="63.084" height="63.04"><path d="M1.418 62.666c-.375-.182-.843-.683-1.04-1.114-.503-1.105-.505-58.956 0-60.062.195-.429.705-.94 1.134-1.135C2.066.103 10.787 0 31.542 0c20.755 0 29.476.103 30.03.355.428.196.94.706 1.135 1.135.502 1.104.502 58.956 0 60.06-.196.429-.707.94-1.135 1.135-1.055.48-59.16.462-60.154-.02zM60.822 60.8c.63-.63.64-1.067.64-29.28s-.01-28.65-.64-29.28c-.63-.63-1.067-.64-29.28-.64s-28.65.01-29.28.64c-.63.63-.64 1.067-.64 29.28s.01 28.65.64 29.28c.63.63 1.067.64 29.28.64s28.65-.01 29.28-.64z" fill="#acddfe"/><path d="M1.11 61.952C.022 60.864.022 60.864.022 31.52c0-29.344 0-29.344 1.088-30.432C2.198 0 2.198 0 31.542 0c29.344 0 29.344 0 30.432 1.088 1.088 1.088 1.088 1.088 1.088 30.432 0 29.344 0 29.344-1.088 30.432-1.088 1.088-1.088 1.088-30.432 1.088-29.344 0-29.344 0-30.432-1.088zm60.087-.722c.559-.505.585-1.845.585-29.654 0-26.653-.045-29.175-.53-29.71-.505-.56-1.845-.586-29.654-.586-26.653 0-29.175.045-29.71.53-.56.505-.586 1.845-.586 29.654 0 26.653.045 29.175.53 29.71.505.56 1.845.586 29.654.586 26.653 0 29.175-.045 29.71-.53z" fill="#2faefe"/></svg>